<svg width="279" height="326" viewBox="0 0 279 326" fill="none" xmlns="http://www.w3.org/2000/svg">
<path d="M205.146 171.335C190.077 168.132 172.65 167.902 161.207 156.086C157.44 155.317 147.661 146.352 156.807 147.544C162.903 147.944 174.688 154.848 176.151 154.106C171.098 149.794 160 147.096 157.423 144.153C176.874 142.315 196.728 153.756 205.146 171.335L205.146 171.335ZM220.95 147.913C209.717 150.817 196.392 155.095 185.971 147.627C181.576 144.069 169.749 143.21 169.462 138.555C178.668 137.376 187.592 140.635 196.645 141.651C191.082 136.158 182.484 137.301 175.855 134.146C182.568 131.413 194.579 133.5 202.621 136.702C209.323 139.33 215.552 143.153 220.95 147.913ZM233.644 129.713C222.857 131.755 211.356 138.201 200.537 132.781C197.012 129.44 184.924 131.602 186.112 126.451C194.78 125.014 203.631 125.973 212.21 127.547C204.009 124.447 195.222 122.942 186.46 123.02C202.019 117.301 220.197 120.181 233.644 129.713ZM212.044 64.4335C207.054 94.7868 187.378 121.915 161.443 137.989C146.104 146.029 128.534 148.595 111.393 148.648C115.368 141.705 124.042 145.148 130.413 144.669C137.801 142.868 145.302 140.798 152.341 137.68C175.514 127.002 193.835 107.154 205.037 84.4578C208.104 77.8935 210.461 70.9903 211.954 63.8979L212.085 64.0426L212.046 64.4309L212.044 64.4335ZM172.014 186.723C158.576 178.917 142.895 173.138 133.672 159.897C125.073 159.047 130.979 146.161 136.536 153.731C145.19 157.241 152.627 163.198 158.991 169.943C153.307 160.253 143.273 154.152 133.123 150.002C150.446 150.46 168.528 162.69 170.935 180.68C171.366 182.681 171.709 184.7 172.014 186.723ZM156.603 69.0415C171.134 76.2979 182.34 93.3357 177.856 109.855C179.589 114.445 170.103 121.101 172.873 112.654C172.869 104.11 171.318 95.2737 166.635 87.9833C169.476 100.515 171.62 114.717 164.768 126.382C167.758 113.806 161.507 101.836 158.024 90.1155C156.407 83.2336 155.813 76.0794 156.603 69.0415ZM149.019 87.0673C159.26 99.1192 163.674 118.261 154.094 131.969C149.939 126.284 159.491 114.445 152.513 111.949C152.036 119.332 150.408 126.741 146.318 133.061C144.508 136.172 137.932 143.368 141.403 135.962C145.892 119.962 140.883 102.189 149.019 87.0673ZM131.669 93.5692C139.175 104.924 144.476 120.533 137.146 133.263C136.998 138.759 123.971 142.262 130.361 134.624C134.341 128.563 135.786 115.854 134.543 112.269C134.236 122.7 129.084 132.257 122.96 140.432C129.942 126.509 120.834 109.353 130.161 96.1538L130.892 94.8478L131.671 93.5696M245.942 117.533C233.058 118.578 219.738 121.463 207.062 117.487C203.181 118.959 193.526 114.152 202.747 113.718C207.842 112.179 221.003 113.793 221.217 111.817C214.112 110.346 206.798 110.75 199.639 109.709C214.492 102.689 235.576 103.052 245.942 117.533L245.942 117.533ZM248.334 93.3164C234.251 100.693 218.132 102.091 202.589 103.737C210.83 97.8473 221.04 96.1281 230.73 94.0668C224.672 91.0555 212.622 100.746 210.658 94.3404C221.183 85.448 236.889 87.4259 248.334 93.3164ZM256.25 70.5149C250.26 80.6558 238.283 86.0436 226.747 85.7092C221.366 86.036 212.416 90.8656 209.757 90.4045C216.407 83.7584 225.414 80.4944 233.752 76.5672C225.8 76.3587 219.414 82.8027 211.445 82.4875C220.427 67.8377 241.144 63.0035 256.25 70.5151L256.25 70.5149ZM246.299 46.8733C242.093 56.1675 234.549 64.4669 224.616 67.5876C222.356 72.1132 214.072 70.8866 220.668 66.3189C222.982 64.3242 228.902 59.4021 227.171 58.2526C225.766 61.6978 215.499 66.0226 220.699 59.1072C226.862 51.4828 236.594 47.2083 246.299 46.8733ZM220.243 21.2748C227.331 28.3122 230.768 40.7716 224.218 49.2579C224.843 53.8969 215.285 54.0963 220.382 49.7102C223.057 46.8726 221.784 32.2353 220.567 42.6012C221.347 46.2877 214.474 57.7598 214.275 49.3411C214.483 39.7719 214.817 29.5533 220.243 21.2748ZM168.548 57.6963C185.419 64.4779 194.736 85.531 188.472 102.589C187.554 95.9306 186.722 83.7716 183.685 81.0231C186.168 90.5912 185.843 100.697 183.919 110.334C182.767 96.4599 176.284 83.8924 170.772 71.3868C169.612 66.9015 169.113 62.2843 168.549 57.6966L168.548 57.6963ZM200.498 86.9471C198.209 78.0218 196.673 68.351 190.54 61.0842C195.156 71.4813 197.08 83.223 195.114 94.4878C193.033 81.8382 186.43 70.6538 181.508 59.0215C177.255 52.309 184.193 41.9497 190.173 50.5769C199.422 60.0334 201.9 74.22 200.498 86.9471ZM192.335 29.8167C206.879 37.0765 213.856 56.4348 207.116 71.2617C205.329 66.9526 205.661 55.2021 202.734 55.2292C203.224 59.0857 205.924 70.1929 202.774 69.944C198.749 59.2629 189.837 49.2785 192.199 37.124C192.236 34.6889 191.976 32.2387 192.335 29.8167Z" fill="#C1D644"/>
<path d="M187.711 205.517C189.151 205.413 190.245 203.942 190.711 201.481C190.932 200.316 191.031 199.163 191.031 198.035C191.031 189.445 185.292 182.279 183.958 181.288C183.96 181.292 183.967 181.31 183.967 181.31C185.089 183.392 185.486 185.316 185.486 187.143C185.486 189.393 184.883 191.495 184.292 193.558C183.758 195.418 183.245 197.208 183.245 198.983C183.245 199.84 183.365 200.694 183.66 201.55C184.516 204.036 186.143 205.63 187.711 205.517ZM212.823 212.967C213.686 212.819 214.248 211.661 214.222 210.085V210.084C214.028 198.243 210.321 192.038 208.993 191.117C208.831 191.005 208.769 191.019 208.768 191.019C208.737 191.05 208.68 191.331 209.021 192.14C210.919 196.654 210.301 199.973 209.756 202.9C209.351 205.076 208.968 207.132 209.708 209.351C210.67 212.248 211.988 213.109 212.823 212.967ZM211.098 129.603C216.191 138.943 217.776 145.25 215.944 148.882C213.256 154.202 206.532 157.945 201.13 160.951C196.212 163.689 191.964 166.053 192.441 168.6C192.658 169.761 193.404 170.585 194.54 170.92C196.584 171.524 199.273 170.47 201.389 168.238L202.497 166.977C207.588 161.025 221.113 145.215 246.769 165.119C246.815 165.154 246.837 165.212 246.828 165.269C245.615 172.423 238.708 176.232 227.378 175.995C222.079 175.886 218.837 177.62 218.764 179.358C218.706 180.753 220.806 182.519 226.919 182.906C229.988 183.101 233.206 182.657 236.613 182.188C246.928 180.767 257.594 179.299 265.651 195.17C265.675 195.216 265.674 195.271 265.649 195.317C265.6 195.404 260.651 203.996 246.781 196.799C240.462 193.52 238.598 193.835 238.049 194.314C237.576 194.727 237.78 195.482 237.889 195.787C238.635 197.867 241.718 199.267 245.288 200.887C250.929 203.447 257.95 206.634 260.498 214.204C263.241 222.355 258.123 231.459 255.214 234.597C255.17 234.644 255.103 234.66 255.043 234.637C254.092 234.278 252.944 234.008 251.614 233.695C247.922 232.826 242.865 231.636 238.231 227.337C233.339 222.8 232.321 218.14 231.242 213.207C230.315 208.96 229.356 204.569 225.759 200.072C222.99 196.614 221.155 197.377 220.657 197.693C219.706 198.299 219.406 199.676 219.975 200.827C227.957 216.995 224.534 220.342 219.352 225.409C217.604 227.118 215.623 229.056 213.849 231.766C213.824 231.802 213.786 231.826 213.743 231.834C213.7 231.841 213.653 231.83 213.62 231.803L211.586 230.253C206.964 226.763 202.598 223.466 200.648 217.452C199.338 213.413 200.98 208.69 202.569 204.124C203.71 200.845 204.787 197.748 204.74 195.056C204.667 190.921 200.165 185.317 196.667 183.801C195.841 183.443 194.698 183.16 193.941 183.843C192.887 184.794 191.71 187.409 195.676 194.24C202.825 206.559 195.786 216.073 191.127 222.369C188.371 226.094 186.38 228.786 188.023 230.565C188.073 230.619 188.079 230.699 188.038 230.759C187.997 230.82 187.921 230.844 187.852 230.818C187.688 230.756 171.397 224.49 171.306 213.806C171.253 207.451 174.567 201.152 177.23 196.091C179.024 192.682 180.574 189.738 180.446 187.889C180.262 185.174 179.681 183.552 178.671 182.929C177.515 182.217 175.895 182.898 174.329 183.558C173.291 183.995 172.311 184.408 171.434 184.454C170.513 184.504 169.772 183.703 169.629 182.505C169.462 181.1 170.191 179.42 172.185 179.054C172.185 179.053 174.885 178.452 174.885 178.452C181.976 176.737 191.689 174.389 217.455 189.667C235.142 200.154 245.829 209.916 249.219 218.68C249.341 218.995 249.453 219.28 249.518 219.345C249.519 219.32 249.551 219.268 249.573 219.156C249.573 219.151 249.582 219.098 249.582 218.993C249.582 217.884 248.653 210.952 228.346 193.181C227.585 192.516 227.202 191.94 227.202 191.462C227.202 191.347 227.225 191.237 227.27 191.133C227.666 190.214 229.765 190.076 231.442 190.237L233.424 190.523C237.157 191.105 244.926 192.319 246.944 190.735C247.228 190.513 247.379 190.249 247.407 189.93C247.434 189.609 247.333 189.337 247.099 189.098C245.556 187.526 238.81 187.966 233.885 188.287L229.558 188.509C225.441 188.561 209.292 187.15 205.509 179.317C204.943 178.146 204.908 177.068 205.402 176.115C207.063 172.915 214.412 171.701 219.778 170.814C222.117 170.427 224.137 170.093 225.042 169.694C228.161 168.573 232.771 166.492 232.728 165.333C232.724 165.204 232.562 165.091 232.429 165.02C230.234 163.854 219.148 164.332 214.538 167.207C214.538 167.208 211.914 169.045 211.914 169.045C207.066 172.609 200.427 177.49 186.371 175.224L185.094 175.082C183.429 174.929 181.541 174.757 181.212 173.563C180.889 172.39 181.754 169.89 192.951 161.752C196.607 159.093 202.864 151.291 202.821 147.993C202.813 147.448 202.64 147.068 202.29 146.827C201.93 146.58 201.424 146.529 200.787 146.675C197.448 147.438 190.697 153.749 185.609 162.615C179.694 172.924 172.259 177.783 167.513 178.026C166.895 178.058 166.539 177.93 166.427 177.635C166.076 176.715 168.594 174.589 171.923 171.905L173.858 170.306C177.888 166.697 178.927 162.934 180.812 156.101L180.938 155.646C185.988 137.378 189.655 130.865 210.95 129.52C211.01 129.516 211.068 129.547 211.098 129.602" fill="#E5F19A"/>
<path d="M136.588 71.2822C133.877 69.1106 130.804 66.6493 126.519 66.0935C125.731 65.9911 125.66 65.8082 125.659 65.8063V65.8044C125.659 65.7956 125.672 65.7598 125.743 65.7057C126.679 64.9829 133.898 64.1922 143.963 69.9603C145.515 70.8503 146.397 72.57 145.928 73.7931C145.533 74.8258 144.275 75.1978 142.478 74.8144C140.459 74.382 138.578 72.8762 136.588 71.2822ZM112.18 81.1018C114.855 80.8799 121.673 80.8824 127.207 85.6888C129.088 87.323 129.844 89.0446 129.228 90.2954C128.637 91.4959 126.872 91.9918 124.729 91.5587C122.322 91.0728 120.531 89.225 118.635 87.269C116.069 84.6216 113.413 81.8867 108.825 81.76C109.247 81.5689 110.365 81.2526 112.18 81.1018ZM103.49 101.422C102.494 100.608 101.708 99.9633 101.599 99.1789C101.578 99.0356 101.629 98.925 101.759 98.8313C102.456 98.3266 104.85 98.5918 107.305 99.7917C109.259 100.747 113.827 103.622 114.036 109.685C114.065 110.555 112.763 112.227 111.377 112.404C110.06 112.573 109.037 111.338 108.495 108.927C107.558 104.753 105.207 102.828 103.49 101.422ZM128.655 38.5435C127.785 41.5882 126.963 44.4648 125.691 46.9156C123.276 51.5674 121.161 52.5996 120.085 52.0701C118.61 51.3448 118.319 47.769 120.418 43.256C124.734 33.9708 124.234 26.4505 119.011 22.0814C118.964 22.0419 118.898 22.0337 118.843 22.0601C93.6884 33.9545 101.292 52.626 104.155 59.6545L104.75 61.1668C105.947 64.5332 105.356 67.1549 104.24 68.2607C103.578 68.915 102.74 69.0815 101.815 68.7421C99.6218 67.9357 99.2956 63.2965 98.9191 57.9253C98.5056 52.0301 97.9895 44.6939 94.7538 39.9587C92.5445 36.7262 86.965 35.0662 77.6953 34.8852C77.6287 34.8839 77.5678 34.9254 77.5451 34.9883C70.848 53.2756 74.6721 59.3845 87.3075 72.1794C91.9455 76.8746 91.997 77.0424 93.3234 81.3385L93.5999 82.2297C94.0279 83.605 93.901 84.7483 93.2435 85.4491C92.6577 86.0726 91.6709 86.3077 90.6665 86.0625C89.4032 85.7546 88.4346 84.8124 88.0751 83.5421C83.1122 66.0065 75.1042 65.5911 74.3761 65.5906C69.8777 62.5234 59.51 66.7597 57.3704 68.4027C57.312 68.4486 57.2925 68.529 57.3252 68.5963C58.0304 70.0545 61.4999 82.1354 61.5345 82.2571C65.2598 92.4087 68.6545 94.3501 73.0452 95.9853C76.108 97.1267 78.8177 97.1437 82.3998 96.0425C87.6131 94.4423 89.8341 96.6918 91.0278 97.8999C91.5181 98.3964 91.8726 98.7553 92.2057 98.4712C92.3251 98.3694 92.4527 98.1688 92.3867 97.7898C92.1529 96.4416 89.5928 93.6069 84.8413 91.8062C76.2007 88.5271 70.9124 81.6043 69.6086 78.0116C69.3452 77.2856 69.3326 76.8827 69.4087 76.747C69.6293 76.3547 70.068 76.1416 70.7135 76.1146C74.0473 75.9745 82.2424 80.9996 88.0128 89.5029C89.8614 92.2252 91.6395 93.4589 93.2985 93.1692C96.0138 92.6947 97.3118 88.4062 97.6449 87.1031C98.753 82.7694 97.3344 74.825 90.0306 65.5257C85.0312 59.1559 83.621 51.9499 84.426 47.9499C84.6687 46.745 85.1017 45.9147 85.6454 45.6124C85.8843 45.4798 86.1985 45.515 86.5788 45.7186C89.7447 47.4119 95.8233 59.3825 96.1677 63.6389C97.1476 75.7842 100.962 77.6809 102.107 77.9735C103.185 78.2482 104.236 77.8346 104.852 76.8962C112.382 65.3835 110.097 56.7902 108.586 51.1042C108.184 49.5932 107.838 48.2889 107.702 47.1249C107.13 42.1771 111.338 35.2743 113.236 33.9971C113.52 33.806 113.747 33.7394 113.875 33.8098C114.807 34.3208 114.777 39.1297 114.53 42.2377C114.516 43.1868 114.044 45.0203 113.498 47.1428C112.229 52.0693 110.491 58.8165 112.522 61.6454C113.097 62.4455 113.945 62.8924 115.042 62.9728C122.506 63.5209 128.464 50.914 130.113 47.0362L130.739 45.5371C132.447 41.4196 135.626 33.7554 137.903 33.1012C138.205 33.0144 138.474 33.0591 138.725 33.2376C140.818 34.7272 136.114 42.0044 134.105 45.1118L133.153 46.6247C132.475 47.8296 131.723 49.8963 132.425 50.6505C132.788 51.0402 133.447 51.0125 134.386 50.57C155.597 40.5693 164.093 44.16 164.992 44.6025C165.385 44.7954 165.518 44.9281 165.571 45.0022C165.419 45.011 165.109 44.9796 164.772 44.945C154.805 43.8973 142.302 48.27 127.611 57.9401C105.732 72.3416 97.6946 94.4701 94.8506 106.378C94.4446 108.067 95.3559 109.067 95.767 109.418C96.4157 109.974 97.2359 110.189 97.8066 109.953C98.1824 109.799 98.4087 109.462 98.4458 109.008C98.4791 108.609 98.7657 107.695 99.4432 107.409C99.9776 107.184 100.647 107.399 101.428 108.046C102.369 108.824 102.2 110.448 101.987 112.506C101.705 115.222 101.355 118.601 103.457 121.622C106.35 125.782 110.181 128.268 114.846 129.012C121.132 130.013 126.951 127.478 128.784 126.093C128.824 126.063 128.849 126.018 128.849 125.968C128.849 125.919 128.827 125.874 128.787 125.844L128.343 125.519C126.685 124.341 123.597 122.146 123.548 112.241C123.497 101.507 114.727 94.2269 110.235 93.4953C107.992 93.1294 106.575 92.4387 105.904 91.3847C105.387 90.572 105.314 89.5443 105.68 88.2426C105.928 87.3614 106.429 86.7687 107.168 86.4815C108.485 85.9705 110.543 86.457 112.678 87.7832C114.072 88.6487 115.739 91.1452 117.669 94.0363C120.794 98.7164 124.682 104.541 129.905 107.589C138.421 112.56 149.351 101.989 149.46 101.881C149.511 101.832 149.522 101.754 149.487 101.692C149.452 101.63 149.38 101.599 149.311 101.618C147.316 102.137 145.908 99.2171 143.96 95.1763C140.668 88.3469 135.693 78.0263 123.31 78.1465C116.461 78.2138 114.816 76.0032 114.445 74.6795C114.152 73.6342 114.937 72.7549 115.647 72.2018C118.258 70.1654 124.007 69.188 127.228 71.029C129.365 72.2502 131.804 74.941 134.386 77.79C138.102 81.89 141.944 86.1299 145.645 86.9535C151.14 88.1773 155.354 86.1044 159.814 83.9114L161.776 82.9592C161.814 82.9403 161.844 82.9064 161.858 82.8649C161.87 82.824 161.866 82.7794 161.846 82.7417C160.498 80.2741 159.609 77.9095 158.749 75.6227C155.919 68.0943 153.683 62.1474 137.398 61.1055C136.224 61.0301 135.219 60.0508 135.156 58.922C135.077 57.5009 136.472 56.3965 138.888 55.9691C143.75 55.1099 148.26 56.5549 152.62 57.9509C157.779 59.604 162.652 61.1652 168.051 59.2425C173.158 57.4242 175.949 53.7874 177.987 51.1329C178.72 50.1782 179.353 49.3536 179.982 48.7363C180.026 48.693 180.041 48.6276 180.02 48.5698C178.661 44.8545 172.537 34.1507 164.838 32.5316C157.888 31.0715 152.05 35.8609 147.36 39.7099C144.4 42.1386 141.843 44.236 139.936 43.8765C139.65 43.8225 138.969 43.6314 138.826 43.0217C138.63 42.1864 139.365 40.4623 143.978 36.9883C154.732 28.8882 149.905 20.9732 149.694 20.6408C149.667 20.5975 149.621 20.5704 149.57 20.5679C134.022 19.7646 131.294 29.3101 128.655 38.542" fill="#ABC027"/>
<path d="M54.7481 188.572C51.5322 185.873 51.6243 178.423 45.573 181.079C39.7301 180.405 38.3332 173.051 41.0915 168.688C43.4513 163.85 48.099 160.498 50.054 155.423C45.4536 152.912 43.123 159.301 41.706 162.573C39.4697 167.286 37.2505 173 32.0879 175.117C26.1244 176.982 28.2863 167.052 23.4584 168.851C18.588 170.55 15.6248 165.191 19.7409 162.214C19.8263 156.902 20.4192 151.237 26.0087 148.683C32.9145 143.969 42.1132 142.735 49.9845 145.6C46.2847 149.21 39.8103 147.081 36.0376 150.958C32.168 155.049 38.4397 159.217 41.9498 155.595C45.7123 154.605 52.2885 147.182 54.4627 152.795C52.5738 156.296 47.4498 163.986 54.9881 164.309C59.7505 162.612 60.2788 172.1 64.306 167.465C66.8004 162.896 62.3116 158.747 62.1279 154.135C63.3154 148.688 64.8642 156.753 65.8266 158.674C68.8353 165.262 75.5317 170.791 74.7523 178.673C72.6167 183.182 67.1395 184.735 64.6254 189.048C61.8209 191.258 57.0925 191.696 54.7483 188.571L54.7481 188.572ZM50.6779 132.944C41.3665 131.688 31.1486 126.99 27.9159 117.485C25.6465 112.206 33.5622 110.44 30.9278 105.725C30.623 99.8438 38.4325 96.0273 42.6517 100.337C46.1765 104.043 50.6376 97.3677 53.815 102.489C57.7247 106.596 56.1304 112.225 55.6074 117.166C55.4676 121.718 56.5139 126.231 58.1143 130.469C55.0338 131.672 54.0343 124.179 51.9607 122.072C50.245 118.659 47.8488 112.929 43.0375 114.649C39.8042 118.129 44.4351 122.69 45.9424 126.094C47.1797 128.152 55.4695 132.435 50.6779 132.944ZM84.2643 127.112C78.2797 129.973 73.3896 134.665 69.2599 139.777C73.7458 141.635 76.915 133.984 81.1935 136.968C82.1797 139.393 79.7828 142.449 84.1539 141.929C89.7489 139.966 92.4641 148.635 86.4253 149.496C83.2715 150.405 77.2935 145.802 79.8579 151.384C81.5467 157.591 72.0776 156.25 70.9679 151.67C69.9633 149.122 66.2742 145.618 66.1862 150.516C66.633 155.112 69.0944 159.413 71.8365 163.063C75.1176 166.93 79.6479 170.749 84.9684 170.723C90.6649 170.188 94.4371 164.573 94.7152 159.195C96.9695 154.919 103.363 155.636 105.559 151.03C108.917 146.412 108.621 138.573 103.196 135.629C99.7703 131.91 98.217 124.862 91.7679 125.707C89.2009 125.623 86.6543 126.21 84.2643 127.112ZM81.8646 97.9974C77.5476 98.5236 76.7649 107.659 72.8509 102.281C68.1758 99.5828 63.977 104.549 61.8068 108.179C57.4751 116.168 58.8752 125.91 61.9272 134.063C64.4085 136.245 61.4082 129.947 62.269 128.604C62.693 125.296 63.206 118.727 67.1478 118.407C68.2018 121.156 70.9874 123.303 72.0021 119.052C74.7845 114.508 82.0295 119 76.846 122.773C73.1929 126.914 67.7141 131.015 67.4501 136.868C70.9227 136.266 73.4107 130.56 77.388 129.05C81.8979 125.859 87.3119 124.328 91.9816 121.485C96.8812 118.335 97.293 110.93 91.9937 108.408C91.9547 103.325 90.4452 96.2793 83.6372 97.561L82.7358 97.7313L81.8642 97.998L81.8646 97.9974Z" fill="#F45A7F"/>
<path d="M9.0953 148.471C7.22604 146.983 1.92799 149.492 2.97337 145.321C1.89979 143.413 -1.97269 141.503 1.26517 139.368C3.69227 137.803 0.609328 134.751 3.5377 133.441C5.54499 131.683 6.84721 134.328 5.76598 135.985C6.4182 139.638 11.104 138.946 13.4482 137.418C15.812 136.653 14.6762 134.256 12.586 134.498C9.36769 133.59 12.4061 129.06 14.413 131.839C15.1471 134.525 17.8179 136.96 20.4816 134.925C22.3402 133.71 20.7688 132.121 19.1355 132.038C16.7536 131.007 18.3791 126.599 20.5677 128.722C21.6449 131.025 22.875 135.09 26.2476 133.606C28.5441 132.347 26.1039 130.285 24.7798 129.59C23.1614 126.828 28.3767 125.368 27.8571 128.85C27.4766 132.384 30.9265 133.434 33.7583 132.657C38.9344 132.025 44.2075 132.616 49.269 133.788C54.2377 135.061 59.1697 137.245 62.8398 140.893C64.6159 143.741 61.2448 147.846 58.0963 146.513C54.3755 145.622 51.6033 142.712 48.0428 141.426C41.4417 138.212 34.2251 135.917 26.8225 135.94C23.3561 136.568 27.0044 141.821 23.704 142.466C20.619 142.008 22.4067 137.904 23.9392 137.087C22.7483 134.596 18.0189 136.723 18.2598 139.305C18.702 141.303 18.174 145.113 15.3997 143.025C13.2515 140.761 18.3722 140.011 16.9902 137.909C14.7612 136.594 12.2423 139.189 10.6134 140.578C8.23279 142.992 12.422 145.33 11.2271 147.849C10.7203 148.489 9.85597 148.619 9.09575 148.471L9.0953 148.471Z" fill="#FFB380"/>
<path d="M93.2697 196.396C87.622 195.766 82.6952 191.626 80.7166 186.353C79.288 182.997 78.0089 179.34 78.4452 175.644C78.7326 174.757 78.9792 172.795 79.716 174.543C83.2093 179.547 87.6697 184.036 93.1777 186.775C96.5304 188.481 100.476 188.771 104.114 187.948C105.682 187.536 108.528 186.555 107.45 184.432C106.46 182.82 104.326 182.703 102.67 182.194C97.9352 181.218 92.7001 181.519 88.5633 178.633C86.4742 177.228 84.8325 175.296 83.0488 173.545C86.3152 173.409 89.9697 173.087 92.3351 170.538C93.7067 169.204 94.4658 167.385 95.8117 166.029C98.1881 164.833 100.905 166.032 103.113 167.068C106.496 168.71 109.424 171.407 110.928 174.894C112.894 178.765 114.543 182.798 115.853 186.936C116.171 189.055 114.359 190.704 112.894 191.95C108.169 195.574 101.999 196.701 96.1668 196.623C95.1981 196.594 94.231 196.519 93.2697 196.396ZM62.3895 230.012C56.2078 226.627 51.8317 220.054 51.2987 212.999C50.8666 207.848 52.0426 202.301 55.4597 198.304C57.0221 196.598 59.1014 195.328 61.385 194.886C60.9305 197.764 59.417 200.339 58.8879 203.204C57.7555 207.828 57.1517 212.989 59.2991 217.416C59.9232 218.915 62.4287 222.148 63.6305 219.55C64.4495 216.963 64.2244 214.18 64.3753 211.497C64.5831 205.152 64.7211 198.557 67.3207 192.653C68.4465 190.395 70.2805 188.107 72.8739 187.598C75.3515 187.613 76.9522 189.927 78.1832 191.794C81.2485 197.038 80.7226 203.588 78.6604 209.091C76.2889 216.106 70.8615 221.489 67.8159 228.154C67.6384 230.271 65.7661 232.141 63.7513 230.629C63.2897 230.441 62.8384 230.229 62.3894 230.013L62.3895 230.012Z" fill="#ABC027"/>
<path d="M156.444 219.893C180.726 219.893 200.41 201.601 200.41 179.037C200.41 156.473 180.726 138.181 156.444 138.181C132.162 138.181 112.478 156.473 112.478 179.037C112.478 201.601 132.162 219.893 156.444 219.893Z" fill="#F8D5A1" stroke="black" stroke-width="9"/>
<path d="M121.337 218.735C140.637 240.246 162.866 240.837 188.023 220.509C219.992 224.593 234.77 251.419 232.357 300.986C197.173 320.941 197.173 320.941 197.173 320.941C128.832 321.84 108.117 310.058 108.117 310.058L81.0369 295.049C80.4233 245.064 93.8565 219.627 121.337 218.735Z" fill="#F1C9C9" stroke="#040404" stroke-width="10"/>
<path d="M81.3849 278.737L114.397 290.996" stroke="#040404"/>
<path d="M201.52 297.404L232.532 285.564" stroke="#040404"/>
<path d="M103.939 185.662C138.865 141.307 174.539 140.142 210.961 182.164C171.287 101.546 135.613 102.712 103.939 185.662Z" fill="#2A1B0A" stroke="#1F1204" stroke-width="10"/>
<path d="M151.565 143.583C164.504 143.583 174.994 133.866 174.994 121.878C174.994 109.89 164.504 100.172 151.565 100.172C138.626 100.172 128.136 109.89 128.136 121.878C128.136 133.866 138.626 143.583 151.565 143.583Z" fill="#2A1B0A"/>
<path d="M165.744 272.839C166.486 273.81 165.987 275.92 167.875 275.55C169.492 276.112 169.422 278.289 168.362 279.353C167.384 280.578 165.852 281.235 164.974 282.553C166.122 283.558 167.189 281.891 167.799 281.051C168.733 279.854 169.726 278.372 171.327 278.098C173.139 277.947 171.895 280.63 173.38 280.426C174.872 280.252 175.373 281.962 174.015 282.547C173.654 284.05 173.126 285.622 171.377 285.992C169.116 286.893 166.425 286.66 164.371 285.347C165.651 284.556 167.355 285.572 168.672 284.71C170.031 283.794 168.514 282.212 167.287 283.018C166.156 283.06 163.817 284.752 163.555 283.019C164.314 282.145 166.257 280.286 164.137 279.716C162.676 279.895 163.128 277.167 161.69 278.228C160.692 279.368 161.704 280.831 161.463 282.153C160.78 283.624 160.852 281.235 160.7 280.629C160.264 278.567 158.713 276.571 159.434 274.382C160.327 273.237 161.981 273.143 162.969 272.077C163.905 271.628 165.276 271.803 165.744 272.839ZM163.371 288.898C165.936 289.845 168.54 291.828 168.856 294.733C169.165 296.376 166.805 296.376 167.254 297.882C166.968 299.572 164.507 300.161 163.582 298.669C162.816 297.393 161.125 299.006 160.548 297.349C159.698 295.935 160.508 294.437 160.97 293.067C161.298 291.783 161.287 290.434 161.102 289.129C162.053 288.983 161.862 291.175 162.317 291.905C162.588 292.983 162.905 294.762 164.381 294.579C165.52 293.796 164.494 292.206 164.282 291.144C164.061 290.481 161.978 288.739 163.371 288.898ZM153.461 288.424C155.343 287.991 157.029 286.968 158.526 285.778C157.37 284.966 155.985 286.938 154.959 285.819C154.832 285.068 155.707 284.352 154.433 284.222C152.719 284.425 152.498 281.79 154.267 281.929C155.221 281.87 156.627 283.557 156.253 281.809C156.167 279.939 158.771 280.921 158.796 282.292C158.92 283.079 159.745 284.309 160.081 282.923C160.246 281.589 159.819 280.211 159.272 279.001C158.585 277.694 157.541 276.322 156.028 275.992C154.376 275.782 152.948 277.138 152.528 278.648C151.616 279.719 149.846 279.11 148.93 280.279C147.683 281.378 147.27 283.623 148.624 284.804C149.361 286.077 149.355 288.178 151.241 288.347C151.964 288.534 152.725 288.528 153.461 288.424ZM152.296 296.846C153.555 296.97 154.357 294.425 155.128 296.201C156.284 297.264 157.792 296.119 158.639 295.226C160.376 293.232 160.596 290.376 160.247 287.866C159.68 287.089 160.133 289.068 159.803 289.395C159.473 290.308 158.911 292.142 157.771 291.982C157.646 291.135 156.991 290.348 156.433 291.491C155.354 292.605 153.581 290.87 155.293 290.127C156.593 289.182 158.41 288.365 158.856 286.719C157.831 286.67 156.763 288.133 155.537 288.31C154.054 288.93 152.419 289.021 150.912 289.533C149.321 290.116 148.734 292.194 150.079 293.246C149.768 294.692 149.749 296.789 151.765 296.857L152.031 296.866L152.296 296.846Z" fill="#F45A7F" stroke="black"/>
<path d="M175.713 287.276C176.15 287.817 177.814 287.44 177.252 288.559C177.436 289.169 178.415 289.957 177.36 290.358C176.571 290.649 177.253 291.711 176.338 291.897C175.657 292.27 175.455 291.436 175.867 291.033C175.913 289.954 174.538 289.854 173.776 290.139C173.056 290.206 173.226 290.959 173.835 291.023C174.692 291.485 173.541 292.579 173.148 291.662C173.11 290.853 172.505 289.992 171.62 290.401C171.015 290.628 171.36 291.179 171.819 291.307C172.43 291.75 171.689 292.899 171.202 292.157C171.042 291.435 170.95 290.202 169.898 290.41C169.166 290.622 169.728 291.362 170.06 291.644C170.345 292.531 168.771 292.615 169.139 291.659C169.472 290.679 168.558 290.162 167.705 290.203C166.194 290.054 164.734 289.552 163.371 288.898C162.04 288.221 160.778 287.288 159.967 286.019C159.643 285.097 160.861 284.145 161.671 284.723C162.671 285.212 163.274 286.215 164.204 286.806C165.875 288.138 167.779 289.247 169.883 289.71C170.907 289.752 170.204 288.029 171.183 288.055C172.03 288.38 171.262 289.433 170.775 289.568C170.955 290.351 172.433 290.047 172.529 289.298C172.53 288.702 172.921 287.654 173.577 288.423C174.044 289.202 172.542 289.09 172.801 289.775C173.35 290.29 174.231 289.713 174.781 289.421C175.611 288.887 174.569 287.957 175.068 287.317C175.253 287.168 175.507 287.185 175.713 287.276Z" fill="#FFB380" stroke="black"/>
<path d="M154.851 301.915C154.965 302.1 155.238 302.143 155.598 302.033C155.769 301.981 155.929 301.914 156.08 301.835C157.224 301.235 157.778 299.969 157.817 299.722C157.817 299.722 157.815 299.725 157.815 299.725C157.616 300.02 157.387 300.207 157.144 300.335C156.844 300.492 156.522 300.559 156.205 300.624C155.92 300.683 155.646 300.739 155.409 300.864C155.295 300.923 155.19 300.999 155.096 301.098C154.825 301.386 154.726 301.714 154.851 301.915ZM155.613 305.782C155.693 305.887 155.886 305.881 156.095 305.767C157.659 304.914 158.227 303.986 158.257 303.745C158.261 303.716 158.254 303.708 158.254 303.708C158.248 303.706 158.207 303.718 158.123 303.82C157.654 304.389 157.168 304.538 156.74 304.67C156.422 304.768 156.121 304.861 155.877 305.115C155.558 305.445 155.536 305.681 155.613 305.782ZM166.601 299.726C165.713 301.058 164.983 301.71 164.371 301.72C163.474 301.733 162.505 301.099 161.727 300.589C161.019 300.125 160.407 299.724 160.101 299.966C159.961 300.076 159.904 300.233 159.938 300.408C160.001 300.722 160.329 301.007 160.774 301.133L161.02 301.192C162.169 301.455 165.221 302.152 164.361 306.962C164.36 306.971 164.354 306.978 164.346 306.98C163.307 307.319 162.317 306.665 161.557 305.138C161.201 304.424 160.744 304.114 160.507 304.225C160.317 304.315 160.228 304.718 160.604 305.56C160.792 305.983 161.076 306.38 161.377 306.802C162.287 308.077 163.228 309.396 161.676 311.579C161.672 311.585 161.665 311.589 161.657 311.588C161.642 311.588 160.151 311.529 160.141 309.178C160.136 308.107 159.964 307.88 159.862 307.84C159.773 307.806 159.687 307.886 159.654 307.922C159.429 308.167 159.458 308.676 159.492 309.265C159.545 310.195 159.611 311.353 158.78 312.222C157.885 313.157 156.314 313.111 155.693 312.943C155.684 312.941 155.677 312.933 155.676 312.923C155.657 312.771 155.613 312.599 155.562 312.4C155.419 311.848 155.225 311.091 155.474 310.173C155.736 309.204 156.286 308.742 156.868 308.254C157.369 307.833 157.887 307.399 158.235 306.605C158.503 305.994 158.273 305.803 158.196 305.759C158.048 305.675 157.844 305.731 157.73 305.887C156.134 308.081 155.448 307.858 154.411 307.522C154.061 307.409 153.665 307.28 153.179 307.233C153.173 307.232 153.167 307.229 153.163 307.224C153.159 307.218 153.157 307.211 153.158 307.205L153.223 306.826C153.365 305.966 153.499 305.154 154.164 304.473C154.611 304.017 155.355 303.905 156.075 303.798C156.591 303.721 157.079 303.648 157.435 303.454C157.981 303.155 158.413 302.163 158.37 301.591C158.36 301.456 158.318 301.284 158.174 301.231C157.974 301.157 157.543 301.183 156.91 302.189C155.768 304.002 154.008 303.729 152.844 303.548C152.155 303.441 151.657 303.364 151.535 303.707C151.531 303.718 151.521 303.724 151.51 303.723C151.499 303.722 151.49 303.713 151.489 303.702C151.486 303.676 151.182 301.067 152.6 300.309C153.443 299.857 154.514 299.859 155.374 299.86C155.954 299.861 156.455 299.861 156.692 299.715C157.041 299.501 157.217 299.31 157.229 299.132C157.243 298.928 157.039 298.76 156.842 298.597C156.711 298.49 156.587 298.388 156.52 298.274C156.449 298.155 156.504 298 156.653 297.897C156.829 297.777 157.104 297.757 157.292 297.997C157.292 297.997 157.561 298.315 157.561 298.315C158.285 299.14 159.277 300.27 159.042 304.771C158.88 307.861 158.326 309.968 157.395 311.032C157.362 311.07 157.332 311.105 157.327 311.118C157.331 311.117 157.34 311.117 157.356 311.112C157.357 311.112 157.365 311.109 157.379 311.102C157.527 311.025 158.385 310.416 159.334 306.468C159.37 306.32 159.42 306.229 159.483 306.196C159.499 306.188 159.515 306.183 159.532 306.182C159.682 306.17 159.847 306.44 159.943 306.675L160.043 306.959C160.227 307.497 160.608 308.617 160.96 308.776C161.01 308.798 161.055 308.8 161.1 308.781C161.144 308.762 161.174 308.73 161.189 308.682C161.291 308.366 160.761 307.498 160.374 306.864L160.042 306.303C159.747 305.758 158.806 303.508 159.586 302.456C159.702 302.299 159.844 302.219 160.005 302.218C160.548 302.216 161.223 303.11 161.716 303.763C161.931 304.048 162.117 304.294 162.233 304.386C162.601 304.724 163.2 305.193 163.352 305.106C163.369 305.096 163.372 305.067 163.372 305.044C163.374 304.67 162.536 303.226 161.831 302.813C161.831 302.813 161.402 302.592 161.402 302.592C160.589 302.195 159.474 301.651 158.794 299.62L158.724 299.44C158.627 299.207 158.518 298.943 158.655 298.816C158.788 298.691 159.182 298.632 161.049 299.555C161.659 299.856 163.136 300.145 163.572 299.909C163.644 299.87 163.683 299.82 163.69 299.757C163.698 299.691 163.67 299.62 163.606 299.545C163.271 299.154 161.958 298.695 160.421 298.637C158.634 298.569 157.467 297.918 157.102 297.302C157.055 297.222 157.047 297.166 157.079 297.13C157.177 297.019 157.636 297.206 158.226 297.462L158.575 297.608C159.337 297.893 159.911 297.769 160.954 297.542L161.023 297.527C163.81 296.924 164.935 296.957 166.602 299.701C166.607 299.709 166.607 299.719 166.601 299.726Z" fill="#E5F19A" stroke="black"/>
<path d="M161.844 268.881C161.733 268.695 161.463 268.648 161.102 268.751C160.931 268.8 160.77 268.864 160.619 268.94C159.468 269.518 158.895 270.769 158.852 271.015C158.852 271.014 158.854 271.012 158.854 271.012C159.058 270.721 159.289 270.539 159.533 270.416C159.835 270.264 160.157 270.204 160.473 270.144C160.758 270.09 161.032 270.038 161.27 269.919C161.385 269.861 161.491 269.788 161.586 269.691C161.861 269.409 161.965 269.083 161.844 268.881ZM161.151 265.016C161.074 264.911 160.881 264.913 160.671 265.023C159.098 265.846 158.517 266.76 158.483 267C158.479 267.029 158.485 267.037 158.485 267.037C158.491 267.039 158.533 267.028 158.618 266.927C159.095 266.369 159.581 266.229 160.01 266.105C160.328 266.012 160.629 265.925 160.877 265.677C161.2 265.353 161.227 265.118 161.151 265.016ZM150.103 270.859C151.011 269.548 151.749 268.911 152.358 268.912C153.252 268.914 154.206 269.563 154.972 270.084C155.67 270.558 156.272 270.968 156.581 270.733C156.722 270.625 156.783 270.47 156.751 270.295C156.694 269.981 156.372 269.692 155.931 269.559L155.687 269.495C154.547 269.214 151.519 268.467 152.458 263.691C152.46 263.682 152.466 263.675 152.474 263.673C153.514 263.354 154.489 264.022 155.22 265.556C155.562 266.273 156.013 266.59 156.25 266.483C156.441 266.397 156.536 265.997 156.176 265.152C155.996 264.728 155.72 264.327 155.428 263.902C154.543 262.616 153.628 261.287 155.212 259.139C155.216 259.133 155.224 259.129 155.231 259.129C155.246 259.13 156.73 259.214 156.7 261.557C156.686 262.624 156.854 262.852 156.955 262.893C157.042 262.929 157.13 262.851 157.163 262.816C157.391 262.576 157.371 262.068 157.348 261.481C157.311 260.553 157.265 259.399 158.108 258.548C159.015 257.632 160.579 257.704 161.195 257.883C161.204 257.885 161.21 257.893 161.211 257.903C161.227 258.054 161.269 258.226 161.316 258.425C161.448 258.978 161.629 259.736 161.366 260.646C161.087 261.607 160.532 262.057 159.944 262.533C159.437 262.943 158.914 263.367 158.554 264.152C158.277 264.755 158.503 264.95 158.578 264.995C158.724 265.082 158.928 265.029 159.044 264.876C160.672 262.718 161.351 262.951 162.378 263.304C162.725 263.423 163.118 263.558 163.6 263.613C163.607 263.614 163.612 263.618 163.616 263.623C163.62 263.628 163.622 263.635 163.621 263.641L163.55 264.018C163.394 264.872 163.246 265.679 162.572 266.345C162.119 266.792 161.376 266.89 160.658 266.985C160.141 267.053 159.654 267.117 159.297 267.304C158.748 267.593 158.3 268.573 158.333 269.143C158.341 269.278 158.38 269.45 158.522 269.506C158.72 269.583 159.15 269.564 159.798 268.573C160.966 266.787 162.714 267.089 163.871 267.289C164.556 267.407 165.05 267.493 165.178 267.153C165.182 267.143 165.192 267.136 165.203 267.138C165.214 267.139 165.222 267.148 165.223 267.159C165.226 267.185 165.484 269.789 164.059 270.52C163.211 270.955 162.145 270.935 161.287 270.919C160.71 270.908 160.211 270.899 159.972 271.041C159.621 271.248 159.443 271.435 159.428 271.612C159.41 271.815 159.61 271.986 159.804 272.151C159.932 272.261 160.054 272.365 160.119 272.479C160.188 272.599 160.13 272.752 159.98 272.852C159.803 272.969 159.529 272.984 159.345 272.742C159.345 272.742 159.083 272.421 159.083 272.421C158.376 271.586 157.407 270.444 157.719 265.964C157.933 262.89 158.521 260.801 159.466 259.757C159.5 259.72 159.531 259.685 159.535 259.672C159.532 259.674 159.523 259.673 159.506 259.678C159.506 259.678 159.498 259.68 159.484 259.687C159.335 259.762 158.47 260.353 157.457 264.269C157.419 264.416 157.367 264.506 157.303 264.538C157.288 264.546 157.272 264.55 157.255 264.551C157.105 264.56 156.945 264.288 156.854 264.053L156.759 263.768C156.585 263.229 156.225 262.107 155.877 261.943C155.828 261.92 155.783 261.917 155.738 261.935C155.693 261.953 155.663 261.985 155.647 262.032C155.541 262.345 156.054 263.219 156.428 263.857L156.749 264.421C157.033 264.969 157.932 267.227 157.137 268.261C157.018 268.416 156.876 268.493 156.716 268.491C156.175 268.484 155.518 267.581 155.038 266.922C154.828 266.635 154.648 266.387 154.533 266.293C154.173 265.951 153.584 265.473 153.432 265.557C153.415 265.566 153.411 265.595 153.41 265.618C153.402 265.991 154.212 267.443 154.907 267.867C154.907 267.867 155.33 268.095 155.33 268.095C156.134 268.504 157.235 269.065 157.877 271.1L157.944 271.28C158.036 271.514 158.14 271.778 158.002 271.902C157.867 272.025 157.474 272.077 155.63 271.125C155.028 270.815 153.562 270.502 153.123 270.73C153.05 270.767 153.011 270.816 153.002 270.879C152.994 270.944 153.021 271.015 153.083 271.091C153.41 271.487 154.71 271.966 156.24 272.051C158.019 272.149 159.17 272.818 159.522 273.437C159.568 273.517 159.575 273.574 159.543 273.609C159.443 273.717 158.989 273.523 158.405 273.258L158.061 273.107C157.306 272.81 156.732 272.924 155.69 273.132L155.621 273.145C152.834 273.699 151.715 273.646 150.101 270.885C150.097 270.877 150.097 270.867 150.103 270.859Z" fill="#E5F19A" stroke="black"/>
<path d="M111.215 311.382L118.205 266.611" stroke="black" stroke-width="3"/>
<path d="M202.201 315.913L200.547 270.979" stroke="black" stroke-width="3"/>
<path d="M83.3629 295.85L111.219 308.801L113.393 295.451L83.5509 283.652L83.3629 295.85Z" fill="#F8D5A1" stroke="black" stroke-width="5"/>
<path d="M230.062 291.002L202.294 301.548L202.66 314.434L229.69 302.513L230.062 291.002Z" fill="#F8D5A1" stroke="black" stroke-width="5"/>
<path d="M194 320.5L200 320" stroke="black" stroke-width="10"/>
</svg>
