<svg xmlns="http://www.w3.org/2000/svg" xmlns:xlink="http://www.w3.org/1999/xlink" width="500" zoomAndPan="magnify" viewBox="0 0 375 374.999991" height="500" preserveAspectRatio="xMidYMid meet" version="1.0"><defs><clipPath id="a6d8e593d1"><path d="M 187.5 0 C 83.945312 0 0 83.945312 0 187.5 C 0 291.054688 83.945312 375 187.5 375 C 291.054688 375 375 291.054688 375 187.5 C 375 83.945312 291.054688 0 187.5 0 Z M 187.5 0 " clip-rule="nonzero"/></clipPath><clipPath id="1a81d3cb93"><path d="M 96.347656 167 L 245 167 L 245 269.460938 L 96.347656 269.460938 Z M 96.347656 167 " clip-rule="nonzero"/></clipPath><clipPath id="e741ffe802"><path d="M 258 79 L 334.847656 79 L 334.847656 155 L 258 155 Z M 258 79 " clip-rule="nonzero"/></clipPath></defs><g clip-path="url(#a6d8e593d1)"><rect x="-37.5" width="450" fill="#ca4766" y="-37.499999" height="449.999989" fill-opacity="1"/></g><g clip-path="url(#1a81d3cb93)"><path fill="#ffffff" d="M 238.121094 258.597656 L 196.453125 215.851562 L 217.273438 196.65625 C 217.222656 196.605469 217.175781 196.554688 217.125 196.507812 C 215.722656 195.078125 214.316406 193.625 212.964844 192.171875 L 175.152344 226.953125 C 172.472656 229.433594 168.238281 229.433594 165.554688 226.953125 L 107.472656 173.476562 L 198.457031 173.476562 C 197.101562 171.421875 195.824219 169.320312 194.671875 167.214844 L 99.476562 167.214844 C 97.75 167.214844 96.347656 168.617188 96.347656 170.347656 L 96.347656 266.292969 C 96.347656 268.019531 97.75 269.425781 99.476562 269.425781 L 241.253906 269.425781 C 243.007812 269.425781 244.386719 268.019531 244.386719 266.292969 L 244.386719 217.804688 C 242.28125 216.550781 240.203125 215.25 238.121094 213.871094 Z M 102.609375 177.488281 L 144.257812 215.851562 L 102.609375 258.597656 Z M 106.894531 263.183594 L 148.890625 220.085938 L 161.347656 231.5625 C 163.875 233.867188 167.132812 235.070312 170.390625 235.070312 C 173.648438 235.070312 176.855469 233.890625 179.386719 231.5625 L 191.839844 220.085938 L 233.835938 263.183594 Z M 106.894531 263.183594 " fill-opacity="1" fill-rule="nonzero"/></g><path fill="#ffffff" d="M 258.96875 128.523438 C 258.695312 130.230469 259.847656 131.832031 261.550781 132.132812 C 266.539062 132.960938 271.046875 135.289062 274.65625 138.875 C 278.238281 142.457031 280.570312 146.992188 281.421875 151.980469 C 281.671875 153.507812 283 154.585938 284.503906 154.585938 C 284.679688 154.585938 284.855469 154.558594 285.03125 154.535156 C 286.734375 154.257812 287.886719 152.628906 287.613281 150.925781 C 286.558594 144.660156 283.628906 138.949219 279.117188 134.4375 C 274.605469 129.929688 268.894531 126.972656 262.628906 125.945312 C 260.851562 125.667969 259.269531 126.820312 258.96875 128.523438 Z M 258.96875 128.523438 " fill-opacity="1" fill-rule="nonzero"/><path fill="#ffffff" d="M 304.800781 151.753906 C 304.953125 153.382812 306.304688 154.609375 307.910156 154.609375 C 308.007812 154.609375 308.109375 154.609375 308.183594 154.585938 C 309.914062 154.433594 311.164062 152.90625 311.015625 151.175781 C 309.886719 138.671875 304.375 126.894531 295.480469 118 C 286.609375 109.128906 274.832031 103.617188 262.304688 102.464844 C 260.574219 102.289062 259.070312 103.566406 258.894531 105.296875 C 258.746094 107.023438 259.996094 108.527344 261.726562 108.703125 C 272.777344 109.707031 283.203125 114.59375 291.042969 122.4375 C 298.9375 130.277344 303.796875 140.703125 304.800781 151.753906 Z M 304.800781 151.753906 " fill-opacity="1" fill-rule="nonzero"/><g clip-path="url(#e741ffe802)"><path fill="#ffffff" d="M 311.96875 101.5625 C 298.660156 88.257812 281.019531 80.3125 262.253906 79.136719 C 260.550781 79.011719 259.046875 80.339844 258.945312 82.066406 C 258.84375 83.796875 260.148438 85.273438 261.878906 85.375 C 279.117188 86.453125 295.328125 93.746094 307.558594 105.972656 C 319.785156 118.199219 327.101562 134.414062 328.15625 151.652344 C 328.253906 153.308594 329.632812 154.585938 331.261719 154.585938 C 331.335938 154.585938 331.386719 154.585938 331.460938 154.585938 C 333.191406 154.484375 334.496094 153.007812 334.394531 151.277344 C 333.242188 132.507812 325.273438 114.84375 311.96875 101.5625 Z M 311.96875 101.5625 " fill-opacity="1" fill-rule="nonzero"/></g><path fill="#ffffff" d="M 309.1875 183.226562 L 285.128906 170.773438 C 279.441406 167.839844 272.453125 169.367188 268.515625 174.40625 L 262.527344 182.097656 C 256.691406 178.691406 251.304688 174.882812 245.011719 168.59375 C 238.5 162.078125 234.738281 156.765625 231.308594 150.699219 L 238.898438 144.761719 C 243.9375 140.828125 245.464844 133.835938 242.53125 128.148438 L 230.152344 104.269531 C 228.398438 100.910156 225.316406 98.429688 221.660156 97.503906 C 218 96.550781 214.09375 97.226562 210.933594 99.308594 L 195.597656 109.53125 C 190.460938 112.964844 187.53125 118.925781 187.933594 125.066406 C 188.234375 129.375 188.808594 135.414062 189.9375 139.75 C 194.621094 157.816406 205.847656 176.386719 221.535156 192.070312 C 237.21875 207.757812 255.789062 218.984375 273.855469 223.667969 C 278.214844 224.796875 284.277344 225.371094 288.640625 225.648438 C 289.015625 225.671875 289.367188 225.671875 289.742188 225.671875 C 295.65625 225.671875 301.09375 222.714844 304.273438 217.730469 L 314.246094 202.246094 C 316.277344 199.085938 316.878906 195.203125 315.902344 191.59375 C 314.972656 188.011719 312.519531 184.953125 309.1875 183.226562 Z M 309.011719 198.886719 L 299.011719 214.371094 C 296.984375 217.554688 293.5 219.433594 289.742188 219.433594 C 289.492188 219.433594 289.238281 219.433594 289.039062 219.410156 C 284.980469 219.132812 279.34375 218.605469 275.457031 217.605469 C 258.445312 213.167969 240.878906 202.546875 225.96875 187.636719 C 211.058594 172.726562 200.410156 155.160156 196 138.171875 C 195 134.289062 194.472656 128.675781 194.195312 124.640625 C 193.945312 120.707031 195.800781 116.898438 199.082031 114.71875 L 214.417969 104.496094 C 215.570312 103.71875 216.949219 103.316406 218.328125 103.316406 C 218.929688 103.316406 219.503906 103.390625 220.105469 103.542969 C 222.058594 104.042969 223.6875 105.347656 224.617188 107.125 L 236.996094 131.054688 C 238.546875 134.0625 237.746094 137.769531 235.066406 139.875 L 225.34375 147.441406 C 224.140625 148.394531 223.789062 150.050781 224.515625 151.402344 C 228.5 158.71875 232.761719 165.210938 240.578125 173.027344 C 248.195312 180.644531 254.558594 184.878906 261.800781 188.890625 C 263.15625 189.640625 264.835938 189.289062 265.785156 188.085938 L 273.453125 178.265625 C 275.535156 175.582031 279.242188 174.78125 282.273438 176.335938 L 306.328125 188.761719 C 308.082031 189.691406 309.410156 191.292969 309.914062 193.222656 C 310.390625 195.152344 310.089844 197.207031 309.011719 198.886719 Z M 309.011719 198.886719 " fill-opacity="1" fill-rule="nonzero"/></svg>