<?xml version="1.0" standalone="no"?>
<!DOCTYPE svg PUBLIC "-//W3C//DTD SVG 20010904//EN"
 "http://www.w3.org/TR/2001/REC-SVG-20010904/DTD/svg10.dtd">
<svg version="1.0" xmlns="http://www.w3.org/2000/svg"
 width="300.000000pt" height="187.000000pt" viewBox="0 0 300.000000 187.000000"
 preserveAspectRatio="xMidYMid meet">
<metadata>
Created by potrace 1.10, written by Peter Selinger 2001-2011
</metadata>
<g transform="translate(0.000000,187.000000) scale(0.100000,-0.100000)"
fill="#000000" stroke="none">
<path d="M1393 1803 c-36 -5 -40 -10 -19 -27 9 -7 15 -41 19 -99 4 -77 3 -89
-13 -97 -16 -8 -19 -6 -22 18 -4 34 -30 36 -38 3 -3 -13 -16 -28 -28 -32 -23
-9 -27 -5 -46 59 -6 17 -3 22 11 22 11 0 24 -5 31 -12 19 -19 30 3 20 40 -10
37 -23 41 -38 12 -6 -11 -17 -20 -24 -20 -14 0 -30 56 -20 71 7 12 51 11 59
-1 6 -10 45 -14 45 -5 0 11 -24 55 -30 55 -4 0 -29 -7 -56 -15 -27 -8 -61 -15
-75 -15 -35 0 -43 -11 -21 -30 27 -21 67 -177 51 -196 -16 -19 -1 -18 91 7 41
11 113 23 160 26 47 3 87 7 89 9 2 2 5 19 7 39 3 29 0 35 -16 35 -13 0 -20 -7
-20 -20 0 -21 -39 -44 -51 -31 -4 3 -9 43 -11 89 -4 60 -1 85 9 93 7 6 10 15
7 20 -5 9 -12 9 -71 2z"/>
<path d="M1600 1780 c-29 -29 -25 -67 11 -101 17 -16 35 -29 39 -29 12 0 20
-28 14 -45 -10 -26 -53 -18 -64 11 -13 33 -34 26 -38 -14 -3 -29 -1 -31 42
-37 60 -9 92 0 112 30 23 35 11 70 -36 101 -49 33 -57 74 -14 74 17 0 28 -6
31 -19 3 -11 13 -21 24 -24 16 -4 19 0 19 28 0 25 -5 34 -22 39 -47 12 -98 6
-118 -14z"/>
<path d="M1883 1738 c8 -27 -46 -157 -75 -181 -24 -20 -24 -18 21 -40 49 -24
56 -22 57 21 0 61 8 74 41 60 15 -6 32 -15 36 -18 11 -10 -24 -80 -40 -80 -24
0 -13 -16 22 -33 48 -23 69 -23 56 1 -7 14 -1 36 23 90 35 76 42 87 57 87 23
0 10 22 -21 37 -49 24 -59 22 -58 -10 1 -15 -4 -37 -10 -49 -11 -20 -14 -21
-42 -7 -37 19 -38 37 -5 70 30 29 32 44 7 44 -10 0 -27 7 -38 15 -27 20 -37
18 -31 -7z"/>
<path d="M1019 1699 c-79 -35 -99 -98 -54 -176 44 -74 85 -83 173 -38 36 19
38 25 18 64 -8 15 -12 38 -9 51 3 12 2 21 -3 19 -5 -2 -26 -11 -46 -19 -38
-14 -52 -40 -23 -40 9 0 21 -12 27 -26 12 -26 1 -43 -29 -44 -17 0 -70 75 -78
110 -11 52 30 91 62 59 12 -12 43 -6 43 8 0 4 -8 18 -18 30 l-17 22 -46 -20z"/>
<path d="M823 1591 c-27 -23 -30 -41 -5 -41 17 -1 99 -87 90 -95 -2 -3 -39 13
-82 35 l-78 39 -34 -22 c-38 -25 -43 -37 -16 -37 17 0 115 -111 128 -145 13
-34 -30 -27 -127 20 -82 41 -100 47 -113 36 -23 -19 -21 -25 29 -122 25 -48
45 -99 45 -113 0 -33 15 -33 45 2 30 33 31 42 6 42 -10 0 -24 7 -31 15 -9 11
-8 19 7 39 22 32 57 31 61 -1 5 -33 16 -29 63 22 22 24 49 47 60 50 24 8 25
35 2 36 -18 0 -120 106 -111 114 2 2 42 -16 88 -40 95 -50 97 -50 124 -30 19
15 19 16 -6 42 -57 62 -108 141 -102 157 8 22 -15 20 -43 -3z m-168 -278 c40
-19 44 -33 15 -51 -18 -11 -22 -8 -40 28 -11 22 -18 40 -16 40 3 0 21 -8 41
-17z"/>
<path d="M2095 1557 c-18 -18 -39 -52 -45 -75 -11 -35 -11 -45 4 -66 24 -37
64 -60 104 -60 29 0 42 8 79 48 36 40 43 55 43 88 0 59 -42 98 -105 98 -40 0
-52 -5 -80 -33z m128 -18 c15 -25 0 -67 -42 -111 -29 -32 -42 -39 -59 -34 -46
15 -31 81 31 139 32 30 54 32 70 6z"/>
<path d="M2350 1450 c0 -28 -108 -129 -137 -130 -29 0 -29 -11 0 -38 28 -26
37 -28 37 -6 0 9 23 40 52 70 80 83 86 69 15 -39 -56 -85 -40 -96 67 -46 37
17 70 28 74 24 4 -3 -1 -11 -10 -16 -9 -5 -35 -25 -58 -44 -23 -19 -50 -35
-61 -35 -26 0 -24 -9 8 -42 29 -31 53 -36 53 -13 0 24 111 124 138 125 31 0
28 15 -10 49 l-33 29 -58 -30 c-32 -16 -63 -28 -68 -26 -6 2 8 28 31 57 22 30
40 57 40 60 -1 11 -60 71 -70 71 -5 0 -10 -9 -10 -20z"/>
<path d="M1684 1339 c24 -78 19 -116 -26 -183 -37 -57 -110 -113 -210 -161
-118 -58 -176 -129 -164 -205 l5 -35 -19 23 c-10 12 -26 46 -34 75 -22 75 -63
112 -125 112 -40 0 -54 -6 -85 -32 -20 -18 -45 -33 -56 -33 -10 0 -23 -6 -27
-14 -4 -7 -23 -26 -42 -42 -30 -25 -34 -26 -43 -11 -10 18 -72 23 -97 8 -25
-16 30 -42 79 -37 42 3 45 2 63 -33 27 -52 34 -56 47 -31 15 29 5 69 -21 79
-21 7 -21 8 4 24 35 23 68 10 111 -41 40 -49 43 -67 25 -169 -18 -102 6 -170
88 -250 85 -84 179 -116 373 -128 186 -12 257 -34 331 -105 21 -20 41 -35 43
-33 2 3 -7 37 -20 76 -35 102 -114 212 -166 230 -26 9 -22 -8 7 -27 13 -9 36
-36 51 -62 38 -64 27 -71 -79 -56 -46 7 -122 12 -170 12 -163 0 -265 37 -346
125 -68 75 -86 131 -78 245 7 90 8 86 -46 180 -11 19 -16 42 -13 55 7 28 54
48 89 39 34 -8 77 -58 77 -88 0 -37 42 -91 70 -91 22 0 26 6 31 44 5 38 14 52
56 90 27 25 96 71 153 101 114 62 187 130 215 203 16 43 16 46 -7 102 -13 32
-29 61 -37 63 -11 4 -12 -1 -7 -19z"/>
<path d="M1780 1233 c0 -48 -25 -97 -77 -153 -65 -70 -50 -80 24 -15 57 50 90
117 79 160 -7 28 -26 34 -26 8z"/>
<path d="M2562 1211 c-9 -24 -140 -112 -161 -109 -25 4 -19 -11 28 -84 l44
-67 29 17 c36 21 36 42 0 42 -29 0 -52 16 -52 35 0 6 14 22 31 34 25 19 33 21
40 10 4 -8 6 -24 2 -36 -6 -28 12 -30 45 -7 28 19 24 36 -8 44 -34 8 -34 23 1
43 41 23 63 8 56 -40 -7 -39 4 -48 35 -31 13 7 25 14 26 15 5 2 -97 153 -104
153 -2 0 -8 -9 -12 -19z"/>
<path d="M407 1161 c-22 -38 -21 -44 3 -38 17 4 130 -46 130 -58 0 -2 -40 -1
-90 2 -86 6 -90 5 -109 -18 -27 -32 -26 -49 2 -47 28 2 167 -80 167 -99 0 -7
-7 -16 -15 -19 -14 -6 -171 11 -207 22 -12 4 -22 -3 -30 -21 -11 -24 -7 -29
70 -103 74 -69 93 -98 76 -114 -10 -10 -166 48 -176 65 -15 27 -27 20 -39 -25
-13 -49 -11 -54 17 -50 30 3 165 -45 179 -65 8 -10 15 -16 17 -13 4 4 32 84
55 154 5 16 2 18 -16 13 -12 -3 -28 1 -36 10 -13 13 -13 18 0 44 18 34 40 37
55 8 16 -29 30 -20 47 31 9 25 19 47 23 50 10 7 30 47 30 60 0 7 -7 9 -17 6
-9 -4 -43 7 -80 26 -63 33 -83 55 -40 45 12 -3 57 -9 100 -13 69 -6 79 -5 91
12 8 10 12 22 10 25 -2 4 -41 29 -85 55 -45 26 -84 56 -87 66 -7 27 -25 22
-45 -11z m-34 -321 c19 0 22 -17 7 -40 -8 -12 -15 -9 -42 19 -32 32 -32 33 -8
27 14 -3 33 -6 43 -6z"/>
<path d="M1826 1165 c-3 -9 -6 -29 -6 -43 0 -38 -52 -124 -97 -161 -20 -17
-34 -33 -30 -37 9 -10 92 23 119 47 l23 20 -25 -7 -25 -6 23 24 c36 39 55 132
33 166 -7 11 -10 10 -15 -3z"/>
<path d="M2220 1138 c-1 -24 -7 -56 -15 -73 -13 -29 -13 -30 -14 -5 -1 22 -4
20 -20 -16 -24 -53 -113 -129 -181 -155 -59 -23 -122 -26 -365 -19 -119 4
-134 3 -181 -18 -90 -41 -142 -118 -124 -183 11 -39 77 -109 102 -109 15 0 15
4 -7 36 -37 54 -33 90 15 135 50 48 82 56 263 69 287 21 458 95 527 229 21 43
28 135 10 146 -6 4 -10 -11 -10 -37z"/>
<path d="M2254 1019 c-4 -22 -16 -54 -28 -72 -20 -30 -99 -78 -177 -107 -60
-22 -11 -22 55 0 118 39 176 98 176 180 0 52 -18 52 -26 -1z"/>
<path d="M2592 989 c-47 -24 -82 -62 -82 -90 0 -10 16 -48 35 -85 19 -36 35
-74 35 -85 0 -10 7 -19 15 -19 8 0 15 7 15 15 0 9 9 15 24 15 18 0 27 -8 35
-32 13 -37 0 -52 -36 -43 -29 7 -28 5 2 -85 14 -40 25 -82 25 -92 0 -21 18
-24 26 -4 3 8 19 19 36 25 39 14 38 14 38 -8 0 -10 -18 -31 -41 -47 -38 -26
-41 -31 -35 -64 3 -19 11 -74 18 -123 l12 -87 38 0 c46 0 48 11 8 40 -42 30
-39 56 6 65 46 8 64 -7 41 -33 -20 -22 -13 -32 24 -32 37 0 46 17 20 41 -31
29 -26 39 18 39 31 0 41 -4 46 -21 4 -13 1 -27 -9 -38 -26 -28 -20 -43 17 -39
25 2 31 7 29 23 -1 11 -5 50 -9 88 -3 37 -9 67 -13 67 -4 0 -20 -6 -36 -14
-16 -8 -64 -18 -106 -22 -90 -8 -99 2 -48 51 17 16 30 35 30 42 0 18 15 16 30
-3 9 -10 26 -14 49 -12 55 5 67 38 45 128 -17 69 -26 82 -41 57 -9 -14 -127
-47 -167 -47 -50 0 -31 35 48 92 41 29 83 58 93 64 15 9 16 15 5 38 -12 27
-12 27 -115 26 -135 -2 -137 -1 -137 9 0 5 9 11 21 14 29 8 19 31 -17 37 -35
6 -43 33 -17 62 26 30 100 61 128 54 26 -7 41 -34 25 -50 -14 -14 -12 -46 3
-46 7 0 21 6 32 13 23 18 15 56 -23 97 -37 41 -84 48 -140 19z m188 -243 c0
-6 -70 -46 -79 -46 -10 0 -21 37 -13 44 6 7 92 8 92 2z m90 -231 c0 -52 -80
-59 -88 -7 -3 17 3 21 30 25 18 2 39 5 46 5 7 1 12 -9 12 -23z"/>
<path d="M1804 939 c-3 -6 -23 -18 -43 -27 -33 -15 -34 -16 -12 -20 24 -4 71
24 79 46 5 15 -14 16 -24 1z"/>
<path d="M2266 890 c-12 -62 -82 -105 -226 -141 -76 -19 -88 -25 -61 -27 90
-9 276 51 300 97 13 24 15 101 2 101 -5 0 -11 -14 -15 -30z"/>
<path d="M1080 895 c0 -8 9 -15 20 -15 11 0 20 7 20 15 0 8 -9 15 -20 15 -11
0 -20 -7 -20 -15z"/>
<path d="M1826 775 c-32 -7 -111 -16 -175 -20 -64 -4 -131 -13 -149 -21 -39
-16 -59 -58 -40 -83 31 -39 49 -40 42 -2 -9 43 26 62 139 72 99 10 264 46 273
60 7 11 -16 10 -90 -6z"/>
<path d="M826 737 c-13 -9 -17 -23 -14 -52 3 -45 15 -48 42 -12 13 17 17 33
12 51 -7 29 -14 32 -40 13z"/>
<path d="M2227 730 c-56 -80 -218 -119 -344 -84 -14 4 -23 2 -23 -4 0 -32 213
-44 291 -17 50 18 75 39 96 79 19 36 2 58 -20 26z"/>
<path d="M151 586 c-15 -59 -15 -59 12 -52 34 9 226 -43 238 -66 5 -10 19 -18
29 -18 25 0 25 2 0 50 -21 41 -27 44 -155 75 -38 10 -77 26 -87 36 -9 11 -18
19 -21 19 -3 0 -10 -20 -16 -44z"/>
<path d="M2006 575 c-11 -8 -37 -15 -58 -15 -27 0 -38 -4 -38 -15 0 -19 -35
-12 -94 17 -27 14 -37 16 -34 6 5 -17 86 -57 129 -64 27 -4 45 2 91 32 32 20
55 41 52 45 -8 13 -26 10 -48 -6z"/>
<path d="M1660 562 c0 -10 56 -63 90 -85 37 -25 130 -21 130 5 0 6 -13 8 -32
4 -38 -7 -121 27 -152 63 -19 21 -36 28 -36 13z"/>
<path d="M1550 555 c0 -17 33 -66 56 -84 20 -15 41 -21 81 -21 61 0 64 14 4
24 -28 4 -53 19 -82 46 -39 37 -59 49 -59 35z"/>
<path d="M121 454 c-13 -50 -9 -63 12 -46 18 15 177 -21 194 -44 17 -24 29
-10 37 45 6 42 6 43 -16 38 -32 -9 -189 24 -195 40 -10 24 -21 13 -32 -33z"/>
<path d="M2155 368 c-79 -26 -240 -29 -304 -5 -57 22 -59 22 -31 -8 13 -14 40
-29 59 -35 82 -23 236 -3 321 40 70 36 49 39 -45 8z"/>
<path d="M105 366 c-8 -27 -24 -161 -19 -165 3 -3 14 0 25 7 26 17 165 -3 192
-26 22 -19 23 -18 30 46 5 41 3 52 -8 52 -8 0 -15 -4 -15 -10 0 -5 -21 -10
-46 -10 -49 0 -57 16 -16 35 32 14 27 35 -7 35 -16 0 -36 3 -45 6 -21 8 -21
-14 0 -37 9 -10 13 -22 10 -27 -8 -13 -81 1 -80 16 1 6 2 18 3 26 0 7 10 16
21 19 31 8 24 34 -11 39 -17 3 -32 0 -34 -6z"/>
<path d="M2218 325 c-2 -3 -38 -14 -79 -24 l-74 -20 63 0 c49 -1 62 -4 62 -16
0 -21 -43 -36 -82 -28 -32 6 -33 6 -15 -14 16 -19 23 -43 12 -43 -3 0 -46 20
-96 46 -50 25 -96 43 -101 42 -19 -7 204 -148 233 -148 59 0 92 64 37 72 -32
4 -19 24 14 20 32 -4 56 27 65 82 5 31 3 36 -14 36 -11 0 -22 -2 -25 -5z"/>
<path d="M1917 128 c7 -73 8 -76 31 -62 13 9 20 7 28 -4 8 -11 20 -13 48 -8
44 8 54 27 32 61 -20 30 -36 33 -29 5 4 -16 0 -20 -19 -20 -18 0 -34 13 -57
45 -18 25 -34 45 -36 45 -2 0 -1 -28 2 -62z"/>
</g>
</svg>
