<?xml version="1.0" standalone="no"?>
<!DOCTYPE svg PUBLIC "-//W3C//DTD SVG 20010904//EN"
 "http://www.w3.org/TR/2001/REC-SVG-20010904/DTD/svg10.dtd">
<svg version="1.0" xmlns="http://www.w3.org/2000/svg"
 width="300.000000pt" height="300.000000pt" viewBox="0 0 300.000000 300.000000"
 preserveAspectRatio="xMidYMid meet">
<metadata>
Created by potrace 1.10, written by Peter Selinger 2001-2011
</metadata>
<g transform="translate(0.000000,300.000000) scale(0.100000,-0.100000)"
fill="#ca4766" stroke="none">
<path d="M1785 2763 c19 -45 27 -112 23 -193 -3 -83 -5 -90 -43 -146 -58 -84
-141 -170 -204 -213 -31 -21 -114 -68 -186 -106 -152 -79 -195 -107 -253 -166
-62 -64 -85 -118 -90 -216 -3 -46 -8 -83 -12 -83 -20 0 -65 80 -86 150 -27 95
-43 125 -86 169 -65 66 -158 88 -235 56 -20 -9 -60 -34 -89 -55 -28 -22 -74
-47 -103 -56 -29 -8 -51 -21 -51 -29 0 -20 46 -53 91 -65 45 -12 122 -93 152
-160 19 -43 19 -51 7 -201 -24 -287 -1 -362 153 -514 104 -101 199 -161 330
-206 84 -28 193 -42 549 -69 151 -11 228 -29 318 -75 58 -29 162 -107 194
-145 24 -29 46 -39 46 -22 0 19 -71 215 -95 264 -64 127 -230 318 -277 318
-10 0 -18 -2 -18 -5 0 -3 33 -41 74 -84 69 -74 116 -148 116 -183 0 -32 -23
-38 -111 -28 -46 6 -187 17 -314 25 -320 21 -394 31 -488 65 -173 64 -289 170
-397 365 l-33 59 5 215 5 215 -58 88 c-69 105 -79 140 -52 177 68 91 171 94
256 6 35 -36 52 -73 77 -163 14 -52 98 -146 126 -140 25 4 44 44 44 93 0 78
75 172 210 262 25 17 104 63 175 103 257 143 338 217 421 385 47 95 52 110 37
114 -24 5 -33 20 -33 56 0 33 -32 110 -57 137 -21 24 -48 24 -38 1z m-1275
-898 c0 -8 -9 -15 -20 -15 -11 0 -20 7 -20 15 0 8 9 15 20 15 11 0 20 -7 20
-15z m1547 -1194 c3 -11 11 -22 19 -25 23 -9 16 -36 -9 -36 -27 0 -67 26 -67
44 0 34 49 48 57 17z"/>
<path d="M1977 2574 c-4 -4 -7 -28 -7 -54 0 -76 -56 -174 -161 -284 -83 -87
-103 -116 -80 -116 14 0 149 110 193 156 50 53 85 124 93 187 8 74 -13 136
-38 111z"/>
<path d="M2816 2428 c-3 -7 -7 -53 -9 -103 -6 -96 -22 -158 -41 -152 -7 2 -10
22 -8 52 5 67 -21 56 -29 -12 -14 -114 -161 -249 -358 -332 l-86 -36 -435 0
c-422 0 -437 -1 -487 -22 -130 -53 -205 -121 -255 -231 -30 -66 -30 -67 -14
-117 21 -64 72 -134 137 -185 83 -65 105 -51 42 27 -35 42 -38 52 -41 119 l-4
73 48 51 c94 100 187 131 449 150 525 36 820 130 993 314 101 109 157 258 135
365 -8 44 -29 65 -37 39z m-1111 -637 c17 -3 30 -12 30 -20 0 -11 -24 -14
-115 -16 -95 -2 -128 -6 -188 -28 -100 -35 -195 -108 -230 -178 -37 -72 -59
-21 -26 58 19 48 121 126 199 154 87 30 257 46 330 30z m255 0 c24 -7 24 -7
-8 -14 -18 -4 -68 -10 -112 -13 -77 -7 -80 -6 -80 15 0 20 4 21 88 20 48 -1
98 -4 112 -8z m-780 -344 l0 -32 -20 25 c-11 14 -20 33 -20 43 0 15 3 16 20 7
14 -7 20 -21 20 -43z"/>
<path d="M2056 2393 c-3 -21 -6 -54 -6 -74 0 -67 -64 -175 -162 -272 -77 -78
-105 -118 -80 -117 20 2 277 137 280 148 5 17 -28 15 -48 -3 -20 -18 -61 -24
-67 -9 -2 7 12 21 30 33 45 27 64 57 82 128 15 58 20 158 9 187 -11 29 -31 17
-38 -21z"/>
<path d="M2896 2212 c-3 -5 -10 -40 -16 -77 -24 -153 -100 -226 -327 -315 -86
-34 -123 -60 -86 -60 29 0 164 46 250 85 76 35 155 100 180 149 20 38 32 226
15 226 -6 0 -13 -4 -16 -8z"/>
<path d="M2011 1974 c-17 -14 -52 -34 -78 -44 -56 -21 -67 -40 -24 -40 58 0
161 62 161 96 0 22 -25 17 -59 -12z"/>
<path d="M2922 1933 c-6 -10 -13 -32 -16 -50 -17 -76 -120 -166 -245 -214 -31
-11 -119 -37 -196 -56 -138 -34 -166 -45 -147 -57 14 -9 249 30 342 55 170 48
251 101 275 182 26 89 16 196 -13 140z"/>
<path d="M640 1911 c-7 -15 -6 -24 6 -36 31 -31 82 6 55 39 -18 22 -48 20 -61
-3z"/>
<path d="M320 1824 c-14 -9 -39 -30 -56 -46 l-31 -29 -31 30 c-28 28 -36 31
-95 31 -98 0 -114 -35 -34 -77 28 -14 54 -14 121 3 27 7 28 6 21 -25 -4 -20
-3 -31 4 -31 6 0 11 4 11 9 0 21 56 73 102 97 47 24 58 46 27 52 -8 1 -25 -5
-39 -14z"/>
<path d="M315 1740 c-49 -19 -50 -36 -9 -100 22 -33 45 -60 52 -60 34 0 44
118 12 150 -22 22 -25 23 -55 10z"/>
<path d="M2155 1684 c-76 -21 -239 -42 -450 -59 -237 -18 -285 -31 -325 -87
-40 -54 -38 -77 10 -127 45 -46 77 -55 65 -18 -4 12 -8 40 -9 61 -2 72 55 95
304 121 271 29 490 81 490 115 0 13 -24 11 -85 -6z"/>
<path d="M146 1586 c-34 -32 -36 -36 -30 -82 4 -27 11 -60 16 -74 l10 -25 34
39 c47 55 59 95 40 140 -8 20 -19 36 -25 36 -5 0 -26 -15 -45 -34z"/>
<path d="M2793 1541 c-81 -75 -168 -119 -264 -133 -62 -9 -191 -7 -363 5 -40
3 -44 -18 -7 -31 56 -20 234 -35 336 -29 191 12 289 56 357 161 67 104 38 118
-59 27z"/>
<path d="M2407 1279 c-22 -12 -68 -23 -108 -26 -45 -4 -69 -10 -69 -18 0 -43
-51 -37 -183 22 -43 19 -81 32 -84 29 -33 -33 191 -136 296 -136 37 0 85 22
121 56 14 12 43 30 65 40 41 17 57 32 49 46 -9 14 -47 8 -87 -13z"/>
<path d="M1537 1254 c-17 -17 88 -166 133 -189 39 -20 200 -21 200 -1 0 8 -15
16 -37 20 -94 17 -135 38 -208 107 -75 71 -77 73 -88 63z"/>
<path d="M1750 1247 c0 -25 109 -115 184 -153 81 -40 143 -45 194 -14 51 31
41 43 -32 35 -85 -9 -144 10 -243 82 -90 64 -103 71 -103 50z"/>
<path d="M2745 904 c-116 -48 -188 -57 -409 -52 -183 5 -194 6 -254 33 -34 15
-66 25 -70 20 -9 -9 51 -60 103 -87 94 -49 379 -43 547 12 119 39 182 70 186
93 5 23 -9 21 -103 -19z"/>
<path d="M2790 794 c-19 -8 -86 -26 -148 -38 -62 -13 -116 -26 -119 -30 -19
-18 23 -22 117 -10 116 14 136 9 120 -33 -19 -47 -106 -65 -187 -38 -34 11
-29 -15 7 -47 28 -25 43 -78 21 -78 -5 0 -91 40 -192 90 -101 49 -192 90 -201
90 -34 0 -18 -18 48 -55 36 -21 121 -72 188 -115 209 -134 229 -140 292 -89
71 56 70 81 -3 102 -87 25 -63 57 44 57 l51 0 32 76 c39 93 37 128 -5 131 -16
2 -46 -4 -65 -13z m40 -62 c-1 -9 -7 -28 -14 -41 l-13 -24 -5 34 c-6 35 7 63
23 53 5 -3 9 -13 9 -22z m-135 -218 c29 -24 29 -25 11 -39 -25 -19 -57 -19
-82 -1 -19 14 -19 15 5 40 14 14 27 26 30 26 3 -1 20 -12 36 -26z"/>
<path d="M2228 545 c-3 -3 1 -29 9 -57 7 -29 13 -83 13 -120 0 -74 6 -80 47
-48 34 27 39 25 47 -11 6 -30 8 -31 44 -25 63 10 111 26 127 42 13 14 13 18 0
45 -19 35 -74 99 -86 99 -14 0 -10 -22 7 -41 23 -26 11 -69 -20 -69 -26 0
-116 89 -155 153 -24 39 -25 40 -33 32z"/>
</g>
</svg>
