<svg width="179" height="211" viewBox="0 0 179 211" fill="none" xmlns="http://www.w3.org/2000/svg">
<path d="M131.548 109.867C121.885 107.813 110.71 107.666 103.373 100.088C100.957 99.5956 94.6861 93.8468 100.551 94.6113C104.46 94.8678 112.017 99.2949 112.955 98.8189C109.715 96.0538 102.598 94.3236 100.946 92.4365C113.418 91.2581 126.15 98.5943 131.548 109.867L131.548 109.867ZM141.682 94.848C134.479 96.7102 125.935 99.4532 119.252 94.6644C116.434 92.3831 108.85 91.8323 108.666 88.8469C114.569 88.091 120.291 90.1808 126.096 90.832C122.529 87.3099 117.016 88.043 112.765 86.0201C117.07 84.2675 124.772 85.6055 129.929 87.6588C134.226 89.3438 138.221 91.7952 141.682 94.848ZM149.822 83.1773C142.905 84.4865 135.53 88.6198 128.592 85.1448C126.332 83.0024 118.58 84.3887 119.343 81.0854C124.901 80.1639 130.576 80.7789 136.077 81.7883C130.818 79.8002 125.184 78.835 119.565 78.8852C129.543 75.2178 141.199 77.0646 149.822 83.1773ZM135.971 41.3173C132.771 60.7811 120.154 78.1769 103.524 88.4838C93.6879 93.6399 82.4214 95.2853 71.4293 95.319C73.9786 90.8669 79.5407 93.0747 83.6259 92.7676C88.3633 91.6127 93.1731 90.2852 97.6874 88.2856C112.547 81.4389 124.295 68.7116 131.478 54.1577C133.445 49.9484 134.956 45.5218 135.913 40.9739L135.997 41.0666L135.972 41.3156L135.971 41.3173ZM110.302 119.734C101.685 114.729 91.6303 111.023 85.7158 102.533C80.202 101.987 83.9888 93.724 87.5523 98.5785C93.1015 100.829 97.8708 104.649 101.952 108.974C98.3065 102.761 91.8725 98.8483 85.364 96.1875C96.472 96.4811 108.067 104.323 109.61 115.859C109.887 117.142 110.107 118.437 110.302 119.734ZM100.42 44.2722C109.738 48.9253 116.924 59.8506 114.048 70.4435C115.16 73.3868 109.077 77.6545 110.853 72.2384C110.851 66.7594 109.856 61.0933 106.853 56.4184C108.675 64.4542 110.049 73.5614 105.656 81.041C107.573 72.9771 103.565 65.3014 101.331 57.7857C100.294 53.3727 99.9133 48.7851 100.42 44.2722ZM95.5569 55.831C102.124 63.5592 104.954 75.8339 98.8112 84.6236C96.1471 80.9783 102.272 73.3869 97.7977 71.7864C97.4913 76.5206 96.4477 81.2712 93.8252 85.3238C92.6643 87.3188 88.4475 91.9333 90.6733 87.1842C93.5517 76.9242 90.3397 65.5273 95.5569 55.831ZM84.4315 60.0003C89.2443 67.2812 92.6437 77.2906 87.9437 85.4537C87.8489 88.9781 79.4953 91.224 83.5926 86.3263C86.145 82.44 87.0713 74.29 86.2745 71.9915C86.0776 78.6798 82.7736 84.8087 78.8468 90.0504C83.3241 81.1228 77.4838 70.1215 83.4642 61.6577L83.9331 60.8202L84.4324 60.0006M157.708 75.3667C149.446 76.0372 140.905 77.887 132.777 75.3376C130.288 76.2811 124.097 73.1988 130.009 72.9208C133.276 71.9337 141.716 72.9684 141.853 71.7014C137.297 70.7585 132.607 71.0172 128.016 70.35C137.541 65.8481 151.061 66.0813 157.708 75.367L157.708 75.3667ZM159.242 59.8382C150.211 64.5682 139.875 65.465 129.908 66.5201C135.193 62.7436 141.74 61.6412 147.953 60.3194C144.069 58.3884 136.342 64.6024 135.082 60.4948C141.832 54.7926 151.902 56.061 159.242 59.8382ZM164.318 45.217C160.477 51.7197 152.796 55.1746 145.399 54.9602C141.948 55.1697 136.21 58.2667 134.504 57.971C138.768 53.7092 144.545 51.6162 149.891 49.0979C144.792 48.9642 140.697 53.0964 135.587 52.8943C141.347 43.5002 154.631 40.4004 164.318 45.2171L164.318 45.217ZM157.937 30.057C155.24 36.0168 150.402 41.3387 144.032 43.3398C142.584 46.2419 137.271 45.4553 141.501 42.5263C142.985 41.2473 146.781 38.091 145.671 37.3539C144.77 39.5631 138.187 42.3363 141.521 37.9019C145.473 33.0128 151.713 30.2719 157.937 30.057ZM141.229 13.6423C145.774 18.1549 147.978 26.1444 143.777 31.5861C144.179 34.5608 138.049 34.6887 141.317 31.8762C143.033 30.0566 142.217 20.6706 141.436 27.3176C141.937 29.6815 137.529 37.0379 137.402 31.6395C137.535 25.5033 137.749 18.9508 141.229 13.6423ZM108.08 36.9972C118.898 41.3458 124.872 54.8459 120.856 65.7839C120.267 61.5145 119.733 53.7177 117.786 51.9552C119.378 58.0907 119.17 64.5712 117.936 70.7505C117.198 61.8539 113.04 53.7951 109.506 45.776C108.762 42.8999 108.442 39.9392 108.08 36.9973L108.08 36.9972ZM128.567 55.7539C127.1 50.0307 126.114 43.8294 122.182 39.1696C125.142 45.8366 126.376 53.3659 125.115 60.5893C123.781 52.4779 119.546 45.3061 116.39 37.8469C113.663 33.5426 118.112 26.8998 121.946 32.4319C127.877 38.4958 129.467 47.5928 128.567 55.7539ZM123.333 19.1196C132.659 23.7749 137.133 36.1882 132.811 45.6958C131.665 42.9327 131.878 35.3978 130.001 35.4152C130.315 37.8881 132.047 45.0105 130.027 44.8509C127.446 38.0017 121.731 31.5993 123.246 23.8054C123.269 22.2439 123.102 20.6727 123.333 19.1196Z" fill="#C1D644"/>
<path d="M120.368 131.786C121.291 131.719 121.993 130.776 122.291 129.198C122.433 128.45 122.497 127.711 122.497 126.988C122.497 121.48 118.817 116.884 117.961 116.249C117.962 116.251 117.967 116.263 117.967 116.263C118.687 117.598 118.941 118.832 118.941 120.003C118.941 121.447 118.554 122.794 118.175 124.117C117.833 125.31 117.504 126.458 117.504 127.596C117.504 128.145 117.581 128.693 117.77 129.242C118.319 130.836 119.362 131.858 120.368 131.786ZM136.471 136.563C137.024 136.468 137.384 135.725 137.367 134.715V134.714C137.243 127.121 134.866 123.142 134.015 122.552C133.911 122.48 133.871 122.489 133.871 122.489C133.85 122.509 133.814 122.689 134.033 123.207C135.25 126.102 134.854 128.23 134.504 130.107C134.244 131.503 133.999 132.821 134.473 134.244C135.09 136.102 135.935 136.654 136.471 136.563ZM135.364 83.1064C138.631 89.096 139.647 93.1399 138.472 95.4692C136.748 98.8805 132.437 101.28 128.973 103.208C125.819 104.964 123.095 106.48 123.401 108.113C123.54 108.857 124.018 109.386 124.747 109.601C126.058 109.988 127.782 109.312 129.138 107.881L129.849 107.072C133.114 103.256 141.787 93.1178 158.238 105.881C158.267 105.903 158.282 105.94 158.276 105.977C157.498 110.565 153.069 113.007 145.804 112.855C142.406 112.785 140.327 113.897 140.28 115.012C140.243 115.906 141.59 117.038 145.51 117.287C147.477 117.411 149.541 117.127 151.726 116.826C158.34 115.915 165.179 114.973 170.346 125.151C170.361 125.18 170.361 125.216 170.345 125.245C170.313 125.301 167.14 130.81 158.246 126.195C154.194 124.093 152.998 124.295 152.646 124.602C152.343 124.866 152.474 125.351 152.544 125.546C153.023 126.88 154.999 127.778 157.289 128.817C160.906 130.459 165.408 132.502 167.042 137.356C168.801 142.582 165.518 148.421 163.653 150.433C163.625 150.463 163.582 150.473 163.544 150.459C162.934 150.228 162.198 150.055 161.345 149.854C158.978 149.297 155.735 148.534 152.763 145.778C149.626 142.868 148.973 139.88 148.282 136.717C147.687 133.994 147.072 131.178 144.766 128.294C142.99 126.076 141.813 126.566 141.494 126.769C140.884 127.157 140.692 128.04 141.057 128.778C146.175 139.145 143.98 141.292 140.657 144.541C139.536 145.637 138.266 146.88 137.128 148.617C137.112 148.64 137.088 148.656 137.06 148.661C137.033 148.666 137.003 148.658 136.982 148.641L135.678 147.648C132.714 145.409 129.914 143.295 128.663 139.439C127.823 136.849 128.877 133.82 129.895 130.893C130.627 128.79 131.318 126.804 131.288 125.078C131.24 122.426 128.353 118.833 126.111 117.86C125.581 117.631 124.848 117.449 124.363 117.888C123.687 118.497 122.932 120.174 125.475 124.554C130.06 132.454 125.545 138.554 122.559 142.592C120.791 144.98 119.514 146.706 120.568 147.847C120.6 147.882 120.603 147.933 120.578 147.972C120.551 148.011 120.502 148.026 120.458 148.01C120.353 147.97 109.906 143.952 109.848 137.101C109.814 133.026 111.939 128.987 113.647 125.741C114.798 123.555 115.791 121.667 115.709 120.482C115.591 118.741 115.219 117.7 114.571 117.301C113.83 116.845 112.791 117.282 111.787 117.705C111.121 117.985 110.493 118.249 109.93 118.279C109.34 118.311 108.864 117.798 108.773 117.029C108.666 116.128 109.133 115.051 110.412 114.816C110.412 114.816 112.143 114.43 112.143 114.43C116.69 113.331 122.919 111.825 139.441 121.622C150.782 128.346 157.635 134.606 159.809 140.226C159.887 140.428 159.959 140.611 160.001 140.652C160.002 140.637 160.022 140.603 160.036 140.532C160.036 140.528 160.042 140.494 160.042 140.427C160.042 139.716 159.446 135.271 146.424 123.875C145.937 123.449 145.691 123.079 145.691 122.773C145.691 122.699 145.706 122.628 145.734 122.562C145.988 121.973 147.334 121.884 148.41 121.987L149.681 122.171C152.075 122.544 157.057 123.322 158.35 122.307C158.533 122.164 158.629 121.995 158.647 121.79C158.664 121.585 158.6 121.41 158.45 121.257C157.46 120.249 153.135 120.531 149.976 120.737L147.202 120.88C144.562 120.913 134.206 120.008 131.781 114.985C131.418 114.234 131.395 113.543 131.712 112.932C132.777 110.88 137.489 110.101 140.93 109.532C142.43 109.284 143.726 109.07 144.306 108.814C146.306 108.096 149.262 106.761 149.235 106.018C149.232 105.935 149.128 105.863 149.042 105.817C147.635 105.07 140.527 105.376 137.571 107.22C137.571 107.22 135.887 108.399 135.887 108.399C132.779 110.684 128.521 113.814 119.509 112.361L118.69 112.269C117.622 112.172 116.411 112.061 116.2 111.295C115.993 110.543 116.548 108.94 123.728 103.722C126.072 102.017 130.084 97.0135 130.057 94.8987C130.052 94.5497 129.941 94.3054 129.716 94.1515C129.486 93.9931 129.161 93.96 128.752 94.0535C126.612 94.5428 122.282 98.5899 119.02 104.275C115.227 110.886 110.459 114.002 107.416 114.157C107.02 114.178 106.792 114.096 106.72 113.907C106.494 113.317 108.109 111.953 110.244 110.232L111.485 109.207C114.069 106.893 114.735 104.48 115.944 100.098L116.025 99.8062C119.263 88.0918 121.614 83.916 135.269 83.0532C135.308 83.0508 135.345 83.0709 135.364 83.1056" fill="#E5F19A"/>
<path d="M87.5859 45.7089C85.8476 44.3163 83.8766 42.7381 81.1292 42.3817C80.6237 42.316 80.5782 42.1987 80.5778 42.1975V42.1963C80.5778 42.1907 80.5858 42.1677 80.6314 42.133C81.2319 41.6695 85.8609 41.1625 92.3148 44.8612C93.3099 45.4319 93.8753 46.5346 93.5751 47.3189C93.3216 47.9812 92.5151 48.2197 91.3628 47.9739C90.0678 47.6966 88.862 46.731 87.5859 45.7089ZM71.9346 52.0056C73.6495 51.8633 78.0215 51.8649 81.5705 54.947C82.7764 55.9949 83.2608 57.0988 82.8662 57.9009C82.487 58.6707 81.3553 58.9887 79.9813 58.711C78.4377 58.3994 77.2894 57.2145 76.0734 55.9602C74.4278 54.2626 72.7249 52.5089 69.7827 52.4276C70.0536 52.3051 70.7702 52.1023 71.9346 52.0056ZM66.3616 65.0358C65.7232 64.5135 65.219 64.1003 65.1493 63.5973C65.136 63.5055 65.1686 63.4345 65.2521 63.3745C65.6986 63.0508 67.2342 63.2209 68.8085 63.9903C70.0612 64.6026 72.9901 66.4465 73.1246 70.3345C73.1431 70.8919 72.308 71.964 71.4193 72.0781C70.575 72.1861 69.9188 71.3945 69.5714 69.8485C68.9705 67.1715 67.4627 65.937 66.3616 65.0358ZM82.4984 24.7155C81.9406 26.6679 81.4134 28.5125 80.598 30.084C79.0496 33.067 77.6933 33.7288 77.0032 33.3893C76.0577 32.9242 75.8707 30.6313 77.2168 27.7374C79.9845 21.7833 79.6641 16.961 76.3144 14.1594C76.2842 14.134 76.2423 14.1288 76.2068 14.1457C60.0768 21.7728 64.9523 33.7458 66.7882 38.2527L67.1699 39.2225C67.9373 41.3811 67.5584 43.0623 66.8426 43.7713C66.4182 44.1909 65.881 44.2977 65.2881 44.0801C63.8815 43.5629 63.6723 40.5881 63.4309 37.1439C63.1657 33.3637 62.8348 28.6594 60.7599 25.623C59.3432 23.5502 55.7654 22.4857 49.8214 22.3697C49.7786 22.3689 49.7395 22.3955 49.725 22.4358C45.4305 34.1623 47.8827 38.0796 55.9851 46.2842C58.9591 49.2949 58.9921 49.4025 59.8427 52.1573L60.02 52.7289C60.2945 53.6107 60.2131 54.3439 59.7915 54.7932C59.4158 55.1931 58.7831 55.3438 58.139 55.1866C57.3289 54.9891 56.7078 54.3849 56.4773 53.5704C53.2948 42.3259 48.1598 42.0595 47.6929 42.0592C44.8083 40.0924 38.1601 42.8089 36.7882 43.8624C36.7507 43.8918 36.7382 43.9434 36.7592 43.9866C37.2114 44.9216 39.4362 52.6684 39.4583 52.7464C41.8472 59.256 44.024 60.5009 46.8395 61.5495C48.8035 62.2814 50.541 62.2923 52.838 61.5862C56.181 60.5601 57.6052 62.0025 58.3707 62.7772C58.685 63.0956 58.9124 63.3257 59.1259 63.1435C59.2025 63.0782 59.2844 62.9497 59.242 62.7066C59.0921 61.8421 57.4505 60.0244 54.4036 58.8696C48.8629 56.767 45.4719 52.3278 44.6358 50.024C44.4669 49.5585 44.4589 49.3001 44.5076 49.2131C44.6491 48.9616 44.9304 48.8249 45.3443 48.8076C47.4821 48.7177 52.7371 51.9401 56.4373 57.3927C57.6227 59.1383 58.7629 59.9295 59.8267 59.7437C61.5679 59.4394 62.4002 56.6894 62.6138 55.8539C63.3243 53.0749 62.4147 47.9807 57.7312 42.0176C54.5254 37.933 53.6211 33.3122 54.1373 30.7473C54.2929 29.9747 54.5706 29.4422 54.9192 29.2484C55.0724 29.1633 55.2739 29.1859 55.5178 29.3165C57.5479 30.4023 61.4457 38.0783 61.6666 40.8077C62.2949 48.5957 64.7406 49.812 65.4752 49.9996C66.1664 50.1758 66.8402 49.9105 67.2353 49.3088C72.064 41.9264 70.5989 36.416 69.6297 32.7699C69.3722 31.801 69.1497 30.9647 69.0631 30.2183C68.6959 27.0455 71.3946 22.6192 72.6111 21.8002C72.7933 21.6777 72.9392 21.6349 73.0214 21.6801C73.6187 22.0077 73.5994 25.0914 73.441 27.0844C73.4325 27.693 73.1294 28.8687 72.7792 30.2297C71.9659 33.3888 70.8515 37.7153 72.1537 39.5293C72.5221 40.0424 73.0658 40.329 73.7695 40.3806C78.5557 40.732 82.3765 32.648 83.4334 30.1614L83.8349 29.2001C84.9303 26.5598 86.9689 21.6452 88.4289 21.2257C88.6228 21.1701 88.7949 21.1987 88.9561 21.3131C90.2982 22.2683 87.2819 26.9348 85.9933 28.9274L85.3831 29.8975C84.9482 30.6701 84.4658 31.9953 84.916 32.479C85.1489 32.7289 85.5718 32.7111 86.1739 32.4274C99.7748 26.0145 105.223 28.317 105.8 28.6008C106.052 28.7245 106.137 28.8095 106.171 28.8571C106.073 28.8627 105.875 28.8426 105.658 28.8204C99.2673 28.1486 91.25 30.9525 81.8292 37.1534C67.7995 46.3882 62.6457 60.5779 60.822 68.2137C60.5616 69.2967 61.146 69.9379 61.4096 70.1632C61.8256 70.5195 62.3515 70.6574 62.7175 70.5062C62.9585 70.4071 63.1036 70.1915 63.1274 69.9C63.1487 69.6445 63.3325 69.0581 63.767 68.8751C64.1096 68.7308 64.5388 68.8683 65.0398 69.2834C65.6431 69.7819 65.5347 70.8238 65.3981 72.1433C65.2175 73.8849 64.993 76.0519 66.3408 77.9887C68.1956 80.6561 70.6524 82.2507 73.6439 82.7272C77.675 83.3697 81.4062 81.7438 82.5814 80.8559C82.6072 80.8365 82.6233 80.8075 82.6233 80.7757C82.6229 80.7439 82.6092 80.7152 82.5835 80.6963L82.2989 80.4879C81.2353 79.7322 79.2551 78.3248 79.2241 71.9731C79.1914 65.0904 73.5673 60.4219 70.6873 59.9528C69.2489 59.7182 68.3404 59.2753 67.91 58.5994C67.5783 58.0782 67.5315 57.4193 67.7665 56.5845C67.9253 56.0195 68.2465 55.6394 68.7205 55.4553C69.5649 55.1276 70.8849 55.4395 72.2537 56.2899C73.1477 56.8449 74.2166 58.4458 75.4543 60.2997C77.4582 63.3008 79.9513 67.0357 83.3004 68.9899C88.7611 72.178 95.7696 65.3993 95.8398 65.3303C95.8725 65.2985 95.8797 65.2485 95.8572 65.209C95.8346 65.1691 95.7883 65.1494 95.7439 65.1611C94.4647 65.4944 93.5622 63.6218 92.3129 61.0307C90.2017 56.6514 87.0115 50.0335 79.0712 50.1105C74.6797 50.1537 73.6247 48.7362 73.3864 47.8874C73.199 47.2171 73.7024 46.6532 74.1574 46.2986C75.8321 44.9927 79.5182 44.366 81.5837 45.5465C82.954 46.3296 84.5179 48.055 86.1739 49.8819C88.5567 52.511 91.0204 55.2298 93.3932 55.758C96.9167 56.5427 99.619 55.2135 102.479 53.8072L103.737 53.1966C103.761 53.1845 103.781 53.1628 103.79 53.1361C103.798 53.1099 103.795 53.0813 103.782 53.0572C102.918 51.4748 102.348 49.9586 101.796 48.4921C99.9812 43.6647 98.5476 39.8513 88.1053 39.1832C87.3524 39.1348 86.7076 38.5069 86.6673 37.783C86.6165 36.8717 87.5112 36.1636 89.0605 35.8895C92.1785 35.3385 95.07 36.2651 97.8659 37.1603C101.174 38.2203 104.299 39.2215 107.761 37.9886C111.036 36.8226 112.825 34.4905 114.132 32.7883C114.602 32.1761 115.008 31.6474 115.412 31.2516C115.44 31.2238 115.449 31.1819 115.436 31.1448C114.564 28.7624 110.638 21.8987 105.701 20.8604C101.244 19.9241 97.5007 22.9953 94.4931 25.4635C92.5948 27.0208 90.9556 28.3658 89.7326 28.1353C89.5493 28.1006 89.1124 27.9781 89.0205 27.5871C88.8951 27.0515 89.3667 25.9459 92.3241 23.7182C99.2206 18.5242 96.1253 13.4487 95.9899 13.2356C95.9725 13.2078 95.9427 13.1905 95.91 13.1888C85.9401 12.6738 84.1909 18.7947 82.4984 24.7145" fill="#ABC027"/>
<path d="M35.1066 120.92C33.0445 119.189 33.1036 114.412 29.2232 116.115C25.4765 115.683 24.5808 110.967 26.3495 108.17C27.8627 105.067 30.843 102.918 32.0966 99.6637C29.1467 98.0534 27.6522 102.15 26.7435 104.248C25.3096 107.271 23.8865 110.934 20.576 112.292C16.752 113.488 18.1383 107.121 15.0424 108.274C11.9194 109.364 10.0193 105.927 12.6587 104.018C12.7134 100.612 13.0936 96.9795 16.6778 95.3418C21.1061 92.3187 27.0047 91.5274 32.0521 93.3646C29.6796 95.6794 25.5279 94.3142 23.1087 96.8004C20.6274 99.4237 24.6491 102.096 26.8999 99.7736C29.3125 99.1391 33.5294 94.3789 34.9237 97.9781C33.7124 100.223 30.4267 105.155 35.2605 105.362C38.3144 104.274 38.6532 110.357 41.2355 107.386C42.8351 104.455 39.9567 101.795 39.8389 98.8375C40.6004 95.3449 41.5935 100.516 42.2106 101.748C44.14 105.972 48.4339 109.518 47.9342 114.572C46.5648 117.463 43.0525 118.459 41.4403 121.225C39.642 122.642 36.61 122.923 35.1068 120.919L35.1066 120.92ZM32.4967 85.249C26.5259 84.4438 19.9737 81.4311 17.9008 75.3358C16.4455 71.9512 21.5214 70.8185 19.8321 67.7951C19.6367 64.0239 24.6444 61.5766 27.35 64.3402C29.6102 66.7163 32.4709 62.4361 34.5083 65.7199C37.0154 68.3539 35.993 71.9635 35.6577 75.1317C35.568 78.0505 36.239 80.9446 37.2652 83.6617C35.2899 84.4331 34.649 79.6287 33.3193 78.2774C32.2191 76.0888 30.6825 72.4149 27.5974 73.5176C25.524 75.7492 28.4936 78.674 29.4601 80.8569C30.2535 82.1759 35.5692 84.9227 32.4967 85.249ZM54.0336 81.5094C50.196 83.3438 47.0604 86.3527 44.4122 89.6306C47.2887 90.8222 49.3209 85.9158 52.0645 87.8292C52.6969 89.3847 51.1599 91.344 53.9628 91.0106C57.5505 89.7516 59.2917 95.3109 55.4194 95.8626C53.397 96.446 49.5636 93.4943 51.208 97.0737C52.291 101.054 46.219 100.194 45.5074 97.2567C44.8633 95.6231 42.4977 93.3762 42.4412 96.5168C42.7277 99.4642 44.3061 102.222 46.0644 104.563C48.1684 107.042 51.0734 109.491 54.4851 109.475C58.1379 109.131 60.5568 105.531 60.7351 102.082C62.1807 99.3403 66.2804 99.8003 67.6884 96.8466C69.8417 93.8853 69.652 88.8587 66.1731 86.9705C63.9767 84.5862 62.9807 80.0666 58.8452 80.6086C57.1992 80.5545 55.5662 80.9312 54.0336 81.5094ZM52.4948 62.8399C49.7266 63.1773 49.2247 69.0351 46.7149 65.5864C43.7171 63.8565 41.0246 67.0413 39.633 69.3689C36.8553 74.4914 37.7531 80.7385 39.7102 85.9668C41.3013 87.3659 39.3774 83.3274 39.9294 82.4658C40.2012 80.345 40.5302 76.1322 43.0579 75.9275C43.7337 77.69 45.52 79.0666 46.1706 76.341C47.9548 73.4269 52.6006 76.3077 49.2767 78.7272C46.9342 81.3826 43.421 84.0118 43.2517 87.765C45.4785 87.3792 47.0738 83.7204 49.6243 82.7518C52.5162 80.7059 55.9878 79.7239 58.9823 77.9008C62.1241 75.8811 62.3881 71.1326 58.99 69.5156C58.965 66.2564 57.9971 61.7381 53.6315 62.56L53.0535 62.6692L52.4946 62.8403L52.4948 62.8399Z" fill="#F45A7F"/>
<path d="M5.83227 95.2057C4.63363 94.2513 1.23631 95.8603 1.90665 93.1853C1.21822 91.9622 -1.26497 90.7372 0.811275 89.3681C2.36763 88.3648 0.390725 86.4077 2.26851 85.5679C3.55567 84.4402 4.3907 86.1365 3.69738 87.199C4.1156 89.5416 7.12033 89.0976 8.62351 88.1175C10.1393 87.6275 9.41099 86.0903 8.07064 86.2452C6.00693 85.6629 7.95531 82.7584 9.24216 84.5405C9.71292 86.2625 11.4256 87.8239 13.1336 86.5191C14.3255 85.7401 13.3178 84.7209 12.2704 84.6677C10.7431 84.0071 11.7854 81.1802 13.1888 82.5416C13.8796 84.0185 14.6684 86.6249 16.831 85.6731C18.3036 84.8659 16.7389 83.544 15.8898 83.0983C14.852 81.327 18.1963 80.3911 17.8631 82.6238C17.6191 84.8897 19.8313 85.5628 21.6471 85.0651C24.9663 84.6598 28.3476 85.0388 31.5932 85.7899C34.7794 86.6066 37.942 88.0068 40.2954 90.3462C41.4343 92.1725 39.2726 94.8045 37.2537 93.95C34.8677 93.3785 33.0901 91.5124 30.807 90.688C26.5741 88.6269 21.9465 87.1554 17.1996 87.1702C14.9769 87.573 17.3163 90.9411 15.2 91.3544C13.2217 91.0614 14.3681 88.4294 15.3508 87.9057C14.5871 86.308 11.5545 87.6722 11.7089 89.3276C11.9924 90.609 11.6539 93.0523 9.8749 91.7132C8.4974 90.2612 11.781 89.7806 10.8948 88.4328C9.46548 87.5893 7.85025 89.2536 6.80572 90.1439C5.27919 91.6922 7.96548 93.1913 7.19929 94.8066C6.8743 95.2166 6.32004 95.3003 5.83256 95.2055L5.83227 95.2057Z" fill="#FFB380"/>
<path d="M59.8083 125.937C56.1867 125.533 53.0275 122.878 51.7587 119.497C50.8426 117.345 50.0224 115 50.3022 112.63C50.4864 112.061 50.6446 110.803 51.1171 111.924C53.3571 115.132 56.2173 118.011 59.7492 119.768C61.8991 120.861 64.429 121.048 66.7618 120.52C67.7673 120.255 69.5924 119.627 68.9015 118.265C68.2662 117.231 66.8978 117.156 65.8362 116.83C62.8 116.204 59.443 116.397 56.7903 114.546C55.4507 113.646 54.3979 112.406 53.2542 111.284C55.3488 111.197 57.6922 110.99 59.2089 109.356C60.0884 108.501 60.5753 107.334 61.4383 106.465C62.9621 105.697 64.7042 106.467 66.12 107.131C68.2895 108.184 70.1672 109.913 71.1313 112.149C72.3919 114.631 73.4496 117.218 74.2898 119.871C74.4934 121.23 73.3314 122.287 72.392 123.086C69.3622 125.409 65.4056 126.133 61.666 126.083C61.0448 126.064 60.4246 126.016 59.8083 125.937ZM40.0067 147.493C36.0427 145.322 33.2365 141.107 32.8947 136.583C32.6177 133.281 33.3718 129.723 35.5629 127.16C36.5649 126.066 37.8982 125.252 39.3625 124.969C39.0711 126.814 38.1005 128.466 37.7613 130.303C37.0351 133.268 36.648 136.577 38.025 139.416C38.4251 140.377 40.0318 142.45 40.8024 140.784C41.3276 139.125 41.1832 137.34 41.28 135.62C41.4133 131.551 41.5017 127.322 43.1687 123.536C43.8906 122.089 45.0667 120.621 46.7296 120.295C48.3184 120.305 49.3448 121.789 50.1342 122.986C52.0998 126.348 51.7626 130.549 50.4402 134.077C48.9195 138.576 45.4392 142.028 43.4862 146.301C43.3724 147.659 42.1718 148.858 40.8799 147.888C40.5838 147.768 40.2945 147.632 40.0066 147.494L40.0067 147.493Z" fill="#ABC027"/>
<path d="M100.318 141.004C115.889 141.004 128.511 129.275 128.511 114.806C128.511 100.337 115.889 88.6072 100.318 88.6072C84.7477 88.6072 72.1254 100.337 72.1254 114.806C72.1254 129.275 84.7477 141.004 100.318 141.004Z" fill="#F8D5A1" stroke="black" stroke-width="9"/>
<path d="M77.8059 140.262C90.182 154.056 104.436 154.435 120.568 141.399C141.067 144.018 150.544 161.22 148.996 193.005C126.435 205.8 126.435 205.8 126.435 205.8C82.6125 206.377 69.3291 198.821 69.3291 198.821L51.9641 189.197C51.5706 157.145 60.1845 140.833 77.8059 140.262Z" fill="#F1C9C9" stroke="#040404" stroke-width="10"/>
<path d="M52.1872 178.737L73.3562 186.598" stroke="#040404"/>
<path d="M129.222 190.707L149.109 183.115" stroke="#040404"/>
<path d="M66.6501 119.054C89.0457 90.6119 111.921 89.8643 135.277 116.811C109.836 65.1154 86.9605 65.8631 66.6501 119.054Z" fill="#2A1B0A" stroke="#1F1204" stroke-width="10"/>
<path d="M97.1896 92.0715C105.487 92.0715 112.213 85.84 112.213 78.1531C112.213 70.4661 105.487 64.2346 97.1896 64.2346C88.8924 64.2346 82.1662 70.4661 82.1662 78.1531C82.1662 85.84 88.8924 92.0715 97.1896 92.0715Z" fill="#2A1B0A"/>
<path d="M71.3154 199.67L75.7976 170.961" stroke="black" stroke-width="3"/>
<path d="M129.659 202.576L128.599 173.762" stroke="black" stroke-width="3"/>
<path d="M53.4556 189.711L71.3181 198.015L72.712 189.455L53.5762 181.889L53.4556 189.711Z" fill="#F8D5A1" stroke="black" stroke-width="5"/>
<path d="M147.525 186.602L129.719 193.364L129.953 201.628L147.286 193.983L147.525 186.602Z" fill="#F8D5A1" stroke="black" stroke-width="5"/>
<path d="M124.401 205.517L128.248 205.197" stroke="black" stroke-width="10"/>
</svg>
